<svg width="44" height="44" viewBox="0 0 44 44" fill="none" xmlns="http://www.w3.org/2000/svg">
<g clip-path="url(#clip0_0_37)">
<path d="M45.6667 23.833L45.6667 20.1663L14.6667 20.1663L14.6667 16.4997L11.0001 16.4997L11.0001 20.1663L7.33341 20.1663L7.33341 23.833L11.0001 23.833L11.0001 27.4997L14.6667 27.4997L14.6667 23.833L45.6667 23.833ZM18.3334 31.1663L14.6667 31.1663L14.6667 27.4997L18.3334 27.4997L18.3334 31.1663ZM18.3334 31.1663L22.0001 31.1663L22.0001 34.833L18.3334 34.833L18.3334 31.1663ZM18.3334 12.833L14.6667 12.833L14.6667 16.4997L18.3334 16.4997L18.3334 12.833ZM18.3334 12.833L22.0001 12.833L22.0001 9.16634L18.3334 9.16634L18.3334 12.833Z" fill="#FAFAFA"/>
</g>
<defs>
<clipPath id="clip0_0_37">
<rect width="44" height="44" fill="white" transform="translate(44 44) rotate(-180)"/>
</clipPath>
</defs>
</svg>
