<svg width="32" height="32" viewBox="0 0 32 32" fill="none" xmlns="http://www.w3.org/2000/svg">
<rect x="32" width="32" height="32" rx="16" transform="rotate(90 32 0)" fill="white"/>
<path d="M16.0002 14.667L16.0002 17.3337L16.0002 20.0003L18.6668 20.0003L18.6668 17.3337L21.3335 17.3337L21.3335 14.667L18.6668 14.667L18.6668 12.0003L16.0002 12.0003L16.0002 14.667ZM13.3335 9.33366L16.0002 9.33366L16.0002 12.0003L13.3335 12.0003L13.3335 9.33366ZM13.3335 9.33366L10.6668 9.33366L10.6668 6.66699L13.3335 6.66699L13.3335 9.33366ZM13.3335 22.667L16.0002 22.667L16.0002 20.0003L13.3335 20.0003L13.3335 22.667ZM13.3335 22.667L10.6668 22.667L10.6668 25.3337L13.3335 25.3337L13.3335 22.667Z" fill="black"/>
</svg>
