<svg width="429" height="650" viewBox="0 0 429 650" fill="none" xmlns="http://www.w3.org/2000/svg">
<path opacity="0.0869565" d="M267.258 646.3C273.208 649.397 280.442 648.377 285.301 643.821L285.763 643.369L423.113 503.635C425.953 500.745 427.567 496.875 427.629 492.834L427.63 492.442L424.959 213.684C424.929 210.575 423.98 207.55 422.239 204.986L421.881 204.479L276.666 7.76705C273.174 3.03614 267.336 0.644256 261.528 1.56414L91.9785 28.4181C86.3521 29.3093 81.6606 33.1647 79.6822 38.4766L79.4993 38.9952L2.17777 270.953C1.19471 273.902 1.10799 277.072 1.92036 280.063L2.0948 280.659L85.6959 546.599C86.9111 550.464 89.5677 553.708 93.1058 555.663L93.4517 555.848L267.258 646.3Z" stroke="url(#paint0_linear_1_1354)" stroke-width="2.73838"/>
<defs>
<linearGradient id="paint0_linear_1_1354" x1="277.861" y1="653.363" x2="167.263" y2="-44.9275" gradientUnits="userSpaceOnUse">
<stop stop-color="#FF1CF7"/>
<stop offset="1" stop-color="#00F0FF"/>
</linearGradient>
</defs>
</svg>
