<svg width="308" height="322" viewBox="0 0 308 322" fill="none" xmlns="http://www.w3.org/2000/svg">
<path opacity="0.855072" d="M79.9862 4.796C74.8382 4.94189 70.0968 7.59062 67.2713 11.8715L67.0042 12.2911L3.7128 115.078C1.33897 118.933 0.739814 123.616 2.0529 127.934L2.18614 128.351L44.9958 256.304C46.3376 260.314 49.2311 263.612 53.0192 265.465L53.3882 265.641L170.427 319.198C175.069 321.323 180.453 321.068 184.874 318.516L286.249 259.987C290.533 257.514 293.4 253.18 294.012 248.291L294.064 247.816L306.201 119.679C306.6 115.469 305.291 111.282 302.579 108.052L302.312 107.743L212.906 6.69179C209.906 3.30102 205.598 1.36822 201.085 1.37122L200.648 1.37729L79.9862 4.796Z" stroke="url(#paint0_linear_1_1407)" stroke-width="2.73838"/>
<defs>
<linearGradient id="paint0_linear_1_1407" x1="70.6915" y1="3.68743" x2="251.404" y2="316.69" gradientUnits="userSpaceOnUse">
<stop stop-color="#FF1CF7"/>
<stop offset="1" stop-color="#00F0FF"/>
</linearGradient>
</defs>
</svg>
