<svg width="300" height="316" viewBox="0 0 300 316" fill="none" xmlns="http://www.w3.org/2000/svg">
<path opacity="0.884058" d="M90.9105 1.40642C85.8712 1.06386 80.984 3.15865 77.7579 7.01963L77.451 7.39897L4.72681 100.112C1.92186 103.688 0.802871 108.295 1.64176 112.747L1.72872 113.178L29.1886 239.469C30.1014 243.666 32.6879 247.303 36.3389 249.544L36.6953 249.756L144.253 311.938C148.62 314.463 153.932 314.743 158.541 312.691L263.528 265.947C267.992 263.96 271.272 260.016 272.424 255.285L272.528 254.826L298.288 133.288C299.179 129.085 298.313 124.707 295.904 121.165L295.666 120.825L220.188 15.9136C217.533 12.2245 213.42 9.86769 208.91 9.43463L208.472 9.39882L90.9105 1.40642Z" stroke="url(#paint0_linear_1_1409)" stroke-width="2.73838"/>
<defs>
<linearGradient id="paint0_linear_1_1409" x1="81.9649" y1="-0.574634" x2="223.458" y2="317.224" gradientUnits="userSpaceOnUse">
<stop stop-color="#FF1CF7"/>
<stop offset="1" stop-color="#00F0FF"/>
</linearGradient>
</defs>
</svg>
