<svg width="435" height="577" viewBox="0 0 435 577" fill="none" xmlns="http://www.w3.org/2000/svg">
<path opacity="0.231884" d="M104.203 567.738C107.796 573.154 114.332 575.79 120.644 574.427L121.254 574.283L296.824 529.056C300.811 528.028 304.232 525.482 306.361 521.97L306.563 521.627L431.551 303.186C433.149 300.394 433.851 297.185 433.571 293.991L433.502 293.353L405.068 72.8205C404.328 67.0797 400.498 62.2079 395.094 60.1335L244.734 2.41578C239.499 0.406206 233.605 1.33597 229.249 4.82461L228.832 5.16979L60.1379 150.032C57.6975 152.127 55.9618 154.917 55.1559 158.02L55.0074 158.644L1.72624 404.611C0.8546 408.635 1.59477 412.835 3.77746 416.313L3.99308 416.648L104.203 567.738Z" stroke="url(#paint0_linear_1_1364)" stroke-width="2.73838"/>
<defs>
<linearGradient id="paint0_linear_1_1364" x1="109.797" y1="578.648" x2="339.686" y2="-20.2323" gradientUnits="userSpaceOnUse">
<stop stop-color="#FF1CF7"/>
<stop offset="1" stop-color="#00F0FF"/>
</linearGradient>
</defs>
</svg>
