<svg width="485" height="387" viewBox="0 0 485 387" fill="none" xmlns="http://www.w3.org/2000/svg">
<path opacity="0.463768" d="M1.73962 274.251C0.427481 280.218 2.68296 286.386 7.48749 290.103L7.96011 290.456L136.798 382.683C140.252 385.156 144.553 386.127 148.724 385.388L149.128 385.31L353.508 343.591C356.884 342.901 359.935 341.127 362.201 338.547L362.643 338.019L480.039 191.932C483.553 187.558 484.479 181.645 482.468 176.407L430.681 41.4969C428.733 36.4222 424.314 32.7215 419.004 31.6784L418.488 31.5855L233.493 1.57427C230.092 1.02255 226.61 1.60076 223.577 3.21069L222.977 3.54676L43.1773 109.3C39.5159 111.453 36.8832 114.99 35.8659 119.102L35.7724 119.502L1.73962 274.251Z" stroke="url(#paint0_linear_1_1380)" stroke-width="2.73838"/>
<defs>
<linearGradient id="paint0_linear_1_1380" x1="-2.02639" y1="284.993" x2="499.956" y2="92.2997" gradientUnits="userSpaceOnUse">
<stop stop-color="#FF1CF7"/>
<stop offset="1" stop-color="#00F0FF"/>
</linearGradient>
</defs>
</svg>
