<svg width="424" height="626" viewBox="0 0 424 626" fill="none" xmlns="http://www.w3.org/2000/svg">
<path opacity="0.130435" d="M202.694 621.502C208.062 625.43 215.296 625.553 220.781 621.871L221.306 621.502L375.954 508.34C379.24 505.935 381.465 502.354 382.168 498.352L382.232 497.963L422.455 230.186C422.921 227.081 422.449 223.911 421.105 221.083L420.825 220.522L310.234 9.80574C307.512 4.61932 302.137 1.37024 296.28 1.37024H127.72C122.045 1.37041 116.825 4.41934 114.03 9.32489L113.767 9.80574L3.17492 220.522C1.71546 223.303 1.12297 226.452 1.46456 229.565L1.54568 230.186L41.7685 497.963C42.3735 501.991 44.5134 505.623 47.7313 508.103L48.046 508.34L202.694 621.502Z" stroke="url(#paint0_linear_1_1357)" stroke-width="2.73838"/>
<defs>
<linearGradient id="paint0_linear_1_1357" x1="212" y1="630.01" x2="212" y2="-57.6765" gradientUnits="userSpaceOnUse">
<stop stop-color="#FF1CF7"/>
<stop offset="1" stop-color="#00F0FF"/>
</linearGradient>
</defs>
</svg>
