<svg width="304" height="318" viewBox="0 0 304 318" fill="none" xmlns="http://www.w3.org/2000/svg">
<path opacity="0.869565" d="M85.588 1.37338C80.4901 1.27239 75.6696 3.64391 72.6378 7.71854L72.3503 8.11836L4.19755 105.943C1.60574 109.663 0.74698 114.313 1.8247 118.703L1.93454 119.128L36.9632 246.429C38.0934 250.536 40.8373 254.005 44.5599 256.052L44.9232 256.247L157.25 314.261C161.758 316.589 167.111 316.604 171.631 314.3L274.939 261.662C279.318 259.431 282.397 255.289 283.281 250.473L283.36 250.005L302.449 125.031C303.093 120.819 302.002 116.533 299.438 113.145L299.185 112.82L216.786 9.65547C213.956 6.1125 209.742 3.96657 205.226 3.75157L204.789 3.73653L85.588 1.37338Z" stroke="url(#paint0_linear_1_1408)" stroke-width="2.73838"/>
<defs>
<linearGradient id="paint0_linear_1_1408" x1="76.4604" y1="-0.178057" x2="237.405" y2="315.694" gradientUnits="userSpaceOnUse">
<stop stop-color="#FF1CF7"/>
<stop offset="1" stop-color="#00F0FF"/>
</linearGradient>
</defs>
</svg>
