<svg width="453" height="518" viewBox="0 0 453 518" fill="none" xmlns="http://www.w3.org/2000/svg">
<path opacity="0.289855" d="M68.3308 506.786C70.7344 512.729 76.4886 516.602 82.8585 516.63L83.4759 516.621L258.916 510.551C263.061 510.408 266.976 508.636 269.818 505.63L270.089 505.334L431.06 326.102C433.243 323.671 434.612 320.626 434.987 317.392L435.049 316.742L450.841 103.733C451.266 97.9996 448.534 92.4904 443.713 89.3594L312.132 3.9102C307.462 0.877223 301.55 0.543221 296.581 2.99804L296.103 3.24439L107.932 104.31C105.054 105.856 102.732 108.255 101.282 111.171L101.004 111.761L2.7399 331.715C1.04821 335.502 0.920287 339.798 2.37317 343.671L2.51829 344.044L68.3308 506.786Z" stroke="url(#paint0_linear_1_1368)" stroke-width="2.73838"/>
<defs>
<linearGradient id="paint0_linear_1_1368" x1="71.552" y1="518.404" x2="406.784" y2="2.19156" gradientUnits="userSpaceOnUse">
<stop stop-color="#FF1CF7"/>
<stop offset="1" stop-color="#00F0FF"/>
</linearGradient>
</defs>
</svg>
