<svg width="467" height="496" viewBox="0 0 467 496" fill="none" xmlns="http://www.w3.org/2000/svg">
<path opacity="0.318841" d="M50.4253 470.422C52.21 476.54 57.4922 480.963 63.7854 481.678L64.3973 481.736L236.85 494.584C241.007 494.894 245.113 493.546 248.273 490.844L248.575 490.578L423.88 332.772C426.332 330.565 428.026 327.649 428.733 324.438L428.86 323.792L465.321 117.464C466.319 111.815 464.172 106.069 459.714 102.459L339.224 4.88822C334.905 1.39087 329.077 0.431248 323.882 2.3305L323.382 2.52357L129.141 81.0848C126.083 82.3217 123.496 84.4837 121.735 87.2599L121.394 87.8237L3.48377 292.106C1.39979 295.717 0.833005 300.001 1.89512 304.021L2.00268 304.409L50.4253 470.422Z" stroke="url(#paint0_linear_1_1370)" stroke-width="2.73838"/>
<defs>
<linearGradient id="paint0_linear_1_1370" x1="52.4384" y1="482.22" x2="432.181" y2="13.2767" gradientUnits="userSpaceOnUse">
<stop stop-color="#FF1CF7"/>
<stop offset="1" stop-color="#00F0FF"/>
</linearGradient>
</defs>
</svg>
