<svg width="456" height="352" viewBox="0 0 456 352" fill="none" xmlns="http://www.w3.org/2000/svg">
<path opacity="0.550725" d="M3.40866 182.215C0.491678 187.373 0.724752 193.716 3.97098 198.636L4.29393 199.107L91.2169 321.015C93.7114 324.513 97.5229 326.835 101.763 327.454L102.174 327.509L292.878 350.224C296.52 350.658 300.194 349.807 303.271 347.824L303.566 347.629L447.711 250.062C452.281 246.969 454.898 241.709 454.609 236.198L447.38 98.2561C447.1 92.9177 444.133 88.0983 439.522 85.4399L439.071 85.1897L285.517 3.22425C282.282 1.49727 278.549 0.955686 274.962 1.68568L274.616 1.75957L87.3312 44.2855C83.1411 45.237 79.5285 47.8583 77.3217 51.5312L77.1126 51.8893L3.40866 182.215Z" stroke="url(#paint0_linear_1_1386)" stroke-width="2.73838"/>
<defs>
<linearGradient id="paint0_linear_1_1386" x1="-3.14788" y1="191.028" x2="494.063" y2="164.97" gradientUnits="userSpaceOnUse">
<stop stop-color="#FF1CF7"/>
<stop offset="1" stop-color="#00F0FF"/>
</linearGradient>
</defs>
</svg>
