<svg width="455" height="657" viewBox="0 0 455 657" fill="none" xmlns="http://www.w3.org/2000/svg">
<path opacity="0.057971" d="M308.815 654.062C315.081 656.554 322.212 654.774 326.575 649.694L326.989 649.192L450.239 493.211C452.743 490.043 453.93 486.037 453.566 482.025L453.526 481.636L420.84 199.444C420.484 196.377 419.236 193.486 417.256 191.129L416.85 190.664L249.464 6.52512C245.499 2.16324 239.43 0.3807 233.737 1.90636L65.931 46.8697C60.4153 48.3477 56.1464 52.6898 54.7458 58.1963L54.6189 58.7338L1.72894 301.896C1.07261 304.913 1.31926 308.052 2.4302 310.924L2.6639 311.494L115.452 572.223C117.056 575.929 120.02 578.874 123.726 580.455L124.087 580.604L308.815 654.062Z" stroke="url(#paint0_linear_1_1352)" stroke-width="2.73838"/>
<defs>
<linearGradient id="paint0_linear_1_1352" x1="320.158" y1="660.047" x2="133.854" y2="-35.2495" gradientUnits="userSpaceOnUse">
<stop stop-color="#FF1CF7"/>
<stop offset="1" stop-color="#00F0FF"/>
</linearGradient>
</defs>
</svg>
