<svg width="448" height="350" viewBox="0 0 448 350" fill="none" xmlns="http://www.w3.org/2000/svg">
<path opacity="0.565217" d="M3.81343 166.572C0.658059 171.558 0.559094 177.873 3.51725 182.942L3.81343 183.429L83.1983 308.867C85.5033 312.509 89.1953 315.043 93.4092 315.89L93.8187 315.968L280.537 348.398C284.173 349.029 287.912 348.364 291.104 346.525L291.41 346.343L438.488 257.091C443.196 254.233 446.072 249.125 446.072 243.617V106.384C446.072 101.048 443.373 96.0878 438.923 93.1851L438.488 92.9104L291.41 3.65777C288.255 1.74294 284.531 0.998222 280.889 1.54639L280.537 1.60308L93.8187 34.0333C89.572 34.7709 85.8187 37.2137 83.4251 40.7838L83.1983 41.1328L3.81343 166.572Z" stroke="url(#paint0_linear_1_1387)" stroke-width="2.73838"/>
<defs>
<linearGradient id="paint0_linear_1_1387" x1="-3.14239" y1="175" x2="488.693" y2="175" gradientUnits="userSpaceOnUse">
<stop stop-color="#FF1CF7"/>
<stop offset="1" stop-color="#00F0FF"/>
</linearGradient>
</defs>
</svg>
