<svg width="291" height="309" viewBox="0 0 291 309" fill="none" xmlns="http://www.w3.org/2000/svg">
<path opacity="0.913043" d="M100.622 1.58099C95.7299 0.772828 90.7529 2.31582 87.1782 5.7251L86.8359 6.06033L5.91203 88.0673C2.70084 91.3217 1.06595 95.8042 1.41685 100.348L1.45709 100.788L14.4384 223.921C14.8974 228.273 17.1447 232.231 20.6307 234.856L20.9719 235.106L118.758 304.709C122.824 307.603 128.02 308.4 132.766 306.858L240.268 271.929C244.866 270.435 248.515 266.917 250.183 262.397L250.337 261.957L288.537 148.169C289.93 144.02 289.533 139.485 287.454 135.648L287.248 135.28L225.374 28.0335C223.089 24.0733 219.202 21.3064 214.728 20.438L214.292 20.3605L100.622 1.58099Z" stroke="url(#paint0_linear_1_1411)" stroke-width="2.73838"/>
<defs>
<linearGradient id="paint0_linear_1_1411" x1="92.0922" y1="-1.21649" x2="195.624" y2="317.421" gradientUnits="userSpaceOnUse">
<stop stop-color="#FF1CF7"/>
<stop offset="1" stop-color="#00F0FF"/>
</linearGradient>
</defs>
</svg>
