<svg width="414" height="614" viewBox="0 0 414 614" fill="none" xmlns="http://www.w3.org/2000/svg">
<path opacity="0.173913" d="M138.706 608.036C143.377 612.687 150.428 613.926 156.382 611.202L156.954 610.926L323.993 526.245C327.645 524.394 330.428 521.197 331.763 517.338L331.886 516.963L411.494 266.607C412.456 263.583 412.481 260.343 411.574 257.313L411.38 256.709L336.194 37.8859C334.299 32.3711 329.513 28.3533 323.753 27.4411L160.376 1.56464C154.797 0.681083 149.186 2.85174 145.653 7.22425L145.318 7.6541L6.19164 192.533C4.28354 195.069 3.1881 198.118 3.04111 201.278L3.02389 201.911L1.37028 464.614C1.34453 468.708 2.91289 472.645 5.73291 475.598L6.00967 475.881L138.706 608.036Z" stroke="url(#paint0_linear_1_1360)" stroke-width="2.73838"/>
<defs>
<linearGradient id="paint0_linear_1_1360" x1="146.52" y1="617.752" x2="251.046" y2="-42.2011" gradientUnits="userSpaceOnUse">
<stop stop-color="#FF1CF7"/>
<stop offset="1" stop-color="#00F0FF"/>
</linearGradient>
</defs>
</svg>
