<svg width="476" height="436" viewBox="0 0 476 436" fill="none" xmlns="http://www.w3.org/2000/svg">
<path opacity="0.391304" d="M6.87567 363.028C7.08289 369.268 10.9493 374.776 16.6998 377.109L17.2626 377.325L172.946 433.689C176.9 435.12 181.255 434.91 185.047 433.118L185.412 432.939L383.703 332.871C386.709 331.354 389.144 328.918 390.661 325.925L390.952 325.32L472.998 144.742C475.345 139.577 474.734 133.548 471.4 128.958L383.422 7.86731C380.192 3.42092 374.887 0.989103 369.434 1.41928L368.905 1.46991L171.812 23.699C168.467 24.0763 165.336 25.5138 162.873 27.7923L162.39 28.2595L5.94372 185.922C2.98211 188.907 1.34005 192.947 1.37118 197.14L1.37889 197.547L6.87567 363.028Z" stroke="url(#paint0_linear_1_1375)" stroke-width="2.73838"/>
<defs>
<linearGradient id="paint0_linear_1_1375" x1="5.8903" y1="374.666" x2="467.211" y2="39.4966" gradientUnits="userSpaceOnUse">
<stop stop-color="#FF1CF7"/>
<stop offset="1" stop-color="#00F0FF"/>
</linearGradient>
</defs>
</svg>
