<svg width="476" height="422" viewBox="0 0 476 422" fill="none" xmlns="http://www.w3.org/2000/svg">
<path opacity="0.405797" d="M1.37244 339.766C1.26794 345.981 4.82349 351.655 10.4134 354.286L10.9604 354.531L161.96 418.74C165.836 420.388 170.205 420.414 174.092 418.823L174.467 418.665L375.249 330.393C378.344 329.032 380.914 326.715 382.586 323.791L382.908 323.198L472.874 148.971C475.471 143.942 475.17 137.907 472.088 133.161L391.161 8.54461C388.175 3.94675 383.023 1.2425 377.567 1.3749L377.038 1.3959L181.281 12.7191C177.906 12.9143 174.689 14.189 172.102 16.346L171.593 16.7895L9.28691 164.31C6.17022 167.143 4.322 171.102 4.14321 175.298L4.13099 175.705L1.37244 339.766Z" stroke="url(#paint0_linear_1_1376)" stroke-width="2.73838"/>
<defs>
<linearGradient id="paint0_linear_1_1376" x1="-0.191587" y1="351.278" x2="472.411" y2="44.3655" gradientUnits="userSpaceOnUse">
<stop stop-color="#FF1CF7"/>
<stop offset="1" stop-color="#00F0FF"/>
</linearGradient>
</defs>
</svg>
