<svg width="285" height="305" viewBox="0 0 285 305" fill="none" xmlns="http://www.w3.org/2000/svg">
<path opacity="0.927536" d="M104.818 1.71986C100.022 0.690196 95.0302 1.95516 91.3083 5.12245L90.9523 5.43521L6.5551 81.7421C3.15757 84.814 1.27085 89.2073 1.37265 93.772L1.3891 94.2145L7.48004 215.021C7.70232 219.43 9.76425 223.536 13.1513 226.346L13.483 226.614L106.137 299.35C110.036 302.411 115.148 303.458 119.936 302.175L228.088 273.196C232.726 271.953 236.535 268.665 238.447 264.278L238.625 263.85L282.498 154.532C284.142 150.435 283.989 145.843 282.09 141.873L281.9 141.491L226.772 33.8233C224.684 29.7461 220.928 26.7872 216.493 25.7038L216.062 25.6049L104.818 1.71986Z" stroke="url(#paint0_linear_1_1412)" stroke-width="2.73838"/>
<defs>
<linearGradient id="paint0_linear_1_1412" x1="96.5358" y1="-1.45886" x2="181.491" y2="315.6" gradientUnits="userSpaceOnUse">
<stop stop-color="#FF1CF7"/>
<stop offset="1" stop-color="#00F0FF"/>
</linearGradient>
</defs>
</svg>
