<svg width="348" height="341" viewBox="0 0 348 341" fill="none" xmlns="http://www.w3.org/2000/svg">
<path opacity="0.768116" d="M39.5663 42.553C34.4382 44.2464 30.5471 48.4427 29.2315 53.6557L29.1121 54.1636L1.7302 180.025C0.783474 184.376 1.72376 188.918 4.30483 192.531L4.5596 192.878L95.7971 313.498C98.2289 316.713 101.797 318.87 105.763 319.533L106.148 319.591L246.267 339.474C251.459 340.21 256.678 338.315 260.188 334.417L342.439 243.067C345.839 239.292 347.202 234.117 346.125 229.172L346.013 228.694L311.593 91.4216C310.613 87.5115 308.172 84.1313 304.781 81.9696L304.451 81.7641L174.955 3.63469C171.142 1.33417 166.539 0.758898 162.287 2.03555L161.876 2.1643L39.5663 42.553Z" stroke="url(#paint0_linear_1_1401)" stroke-width="2.73838"/>
<defs>
<linearGradient id="paint0_linear_1_1401" x1="29.852" y1="44.3177" x2="327.276" y2="312.12" gradientUnits="userSpaceOnUse">
<stop stop-color="#FF1CF7"/>
<stop offset="1" stop-color="#00F0FF"/>
</linearGradient>
</defs>
</svg>
