<svg width="445" height="347" viewBox="0 0 445 347" fill="none" xmlns="http://www.w3.org/2000/svg">
<path opacity="0.57971" d="M4.24584 150.703C0.86692 155.5 0.440805 161.761 3.10051 166.956L3.36791 167.455L74.9974 295.816C77.1019 299.587 80.6591 302.323 84.83 303.396L85.2348 303.495L267.251 345.231C270.868 346.061 274.657 345.586 277.953 343.899L278.27 343.732L427.624 262.933C432.453 260.32 435.574 255.382 435.861 249.899L442.988 113.919C443.266 108.608 440.847 103.527 436.578 100.393L436.158 100.096L296.068 4.12784C293.007 2.03105 289.308 1.08327 285.624 1.44524L285.266 1.48425L99.8843 23.9665C95.5971 24.4865 91.7173 26.742 89.1449 30.1958L88.9001 30.5343L4.24584 150.703Z" stroke="url(#paint0_linear_1_1388)" stroke-width="2.73838"/>
<defs>
<linearGradient id="paint0_linear_1_1388" x1="-3.07702" y1="158.719" x2="481.429" y2="184.111" gradientUnits="userSpaceOnUse">
<stop stop-color="#FF1CF7"/>
<stop offset="1" stop-color="#00F0FF"/>
</linearGradient>
</defs>
</svg>
