<svg width="417" height="620" viewBox="0 0 417 620" fill="none" xmlns="http://www.w3.org/2000/svg">
<path opacity="0.15942" d="M158.935 614.166C163.85 618.589 170.982 619.46 176.797 616.408L177.355 616.102L340.818 521.771C344.358 519.728 346.961 516.393 348.087 512.476L348.191 512.095L348.191 512.094L415.12 255.272C415.918 252.212 415.775 248.988 414.719 246.018L414.495 245.427L327.484 28.6605C325.309 23.2406 320.314 19.4673 314.506 18.8569L148.956 1.45687C143.329 0.865489 137.832 3.33566 134.535 7.89906L134.222 8.34779L4.04506 202.287C2.28266 204.913 1.35315 208.003 1.37037 211.156L1.38663 211.787L13.4566 476.912C13.6425 480.994 15.4059 484.84 18.3664 487.642L18.6566 487.91L158.935 614.166Z" stroke="url(#paint0_linear_1_1359)" stroke-width="2.73838"/>
<defs>
<linearGradient id="paint0_linear_1_1359" x1="167.265" y1="623.506" x2="237.789" y2="-47.4816" gradientUnits="userSpaceOnUse">
<stop stop-color="#FF1CF7"/>
<stop offset="1" stop-color="#00F0FF"/>
</linearGradient>
</defs>
</svg>
