<svg width="485" height="394" viewBox="0 0 485 394" fill="none" xmlns="http://www.w3.org/2000/svg">
<path opacity="0.449275" d="M1.58928 288.481C0.571645 294.532 3.15924 300.604 8.18106 304.068L8.67446 304.395L143.554 390.167C147.13 392.442 151.467 393.177 155.584 392.219L155.981 392.121L360.435 338.912C363.754 338.049 366.694 336.128 368.816 333.45L369.23 332.906L480.441 179.39C483.74 174.836 484.362 168.869 482.075 163.732L422.889 30.7976C420.673 25.8211 416.052 22.353 410.682 21.5997L410.16 21.5357L221.66 1.45969C218.251 1.09656 214.822 1.8555 211.891 3.61135L211.312 3.97618L34.9635 120.311C31.4257 122.645 28.9818 126.302 28.1728 130.45L28.0996 130.853L1.58928 288.481Z" stroke="url(#paint0_linear_1_1379)" stroke-width="2.73838"/>
<defs>
<linearGradient id="paint0_linear_1_1379" x1="-1.64604" y1="299.456" x2="495.424" y2="78.1462" gradientUnits="userSpaceOnUse">
<stop stop-color="#FF1CF7"/>
<stop offset="1" stop-color="#00F0FF"/>
</linearGradient>
</defs>
</svg>
