<svg width="427" height="598" viewBox="0 0 427 598" fill="none" xmlns="http://www.w3.org/2000/svg">
<path opacity="0.202899" d="M121.756 590.86C125.905 595.924 132.736 597.877 138.907 595.826L139.502 595.615L311.946 530.565C315.788 529.116 318.907 526.228 320.647 522.521L320.812 522.159L424.228 286.651C425.512 283.725 425.874 280.484 425.276 277.356L425.144 276.731L373.523 55.793C372.201 50.1347 367.872 45.663 362.259 44.1589L204.571 1.90662C199.134 0.449686 193.347 2.00686 189.377 5.95967L188.999 6.34984L33.8243 171.878C31.6393 174.208 30.2181 177.145 29.7413 180.294L29.6588 180.926L1.46552 436.591C1.01548 440.672 2.17587 444.762 4.69113 447.994L4.93907 448.303L121.756 590.86Z" stroke="url(#paint0_linear_1_1362)" stroke-width="2.73838"/>
<defs>
<linearGradient id="paint0_linear_1_1362" x1="128.486" y1="601.235" x2="297.985" y2="-31.3449" gradientUnits="userSpaceOnUse">
<stop stop-color="#FF1CF7"/>
<stop offset="1" stop-color="#00F0FF"/>
</linearGradient>
</defs>
</svg>
