<svg width="435" height="339" viewBox="0 0 435 339" fill="none" xmlns="http://www.w3.org/2000/svg">
<path opacity="0.608696" d="M5.2024 119.191C1.41009 123.581 0.346903 129.686 2.39594 135.081L2.60347 135.6L58.5167 268.449C60.1992 272.446 63.4528 275.568 67.5021 277.087L67.8961 277.228L239.227 336.367C242.774 337.591 246.636 337.507 250.121 336.14L250.458 336.003L402.994 272.044C408.026 269.935 411.607 265.37 412.461 259.981L433.436 127.552C434.263 122.331 432.415 117.056 428.541 113.493L428.16 113.154L302.853 5.18834C300.011 2.73958 296.391 1.38809 292.648 1.37005L292.285 1.37298L111.065 4.67261C106.728 4.75164 102.623 6.61378 99.7095 9.81009L99.4313 10.1241L5.2024 119.191Z" stroke="url(#paint0_linear_1_1390)" stroke-width="2.73838"/>
<defs>
<linearGradient id="paint0_linear_1_1390" x1="-2.78134" y1="126.338" x2="463.4" y2="200.174" gradientUnits="userSpaceOnUse">
<stop stop-color="#FF1CF7"/>
<stop offset="1" stop-color="#00F0FF"/>
</linearGradient>
</defs>
</svg>
