<svg width="487" height="654" viewBox="0 0 487 654" fill="none" xmlns="http://www.w3.org/2000/svg">
<path opacity="0.0144928" d="M367.738 652.019C374.363 653.544 381.191 650.643 384.708 644.882L385.037 644.317L483.652 466.671C485.603 463.156 486.134 459.032 485.145 455.145L485.044 454.77L406.033 173.505C405.206 170.559 403.539 167.922 401.243 165.913L400.776 165.52L202.144 4.87285C197.543 1.15155 191.243 0.324163 185.837 2.73111L24.2375 74.6799C19.0002 77.0117 15.4575 81.9974 14.9565 87.6795L14.9178 88.2313L1.39097 343.338C1.22904 346.393 1.96079 349.425 3.4902 352.065L3.80735 352.588L159.959 599.507C162.108 602.904 165.472 605.347 169.357 606.343L169.735 606.435L367.738 652.019Z" stroke="url(#paint0_linear_1_1349)" stroke-width="2.73838"/>
<defs>
<linearGradient id="paint0_linear_1_1349" x1="379.983" y1="656.243" x2="79.2587" y2="-19.1948" gradientUnits="userSpaceOnUse">
<stop stop-color="#FF1CF7"/>
<stop offset="1" stop-color="#00F0FF"/>
</linearGradient>
</defs>
</svg>
