<svg width="460" height="504" viewBox="0 0 460 504" fill="none" xmlns="http://www.w3.org/2000/svg">
<path opacity="0.304348" d="M59.3047 488.588C61.3982 494.621 66.9172 498.772 73.2516 499.145L73.867 499.168L247.887 502.628C252.04 502.71 256.053 501.149 259.054 498.293L259.341 498.013L427.633 329.525C429.951 327.205 431.482 324.223 432.022 321L432.117 320.351L458.355 110.648C459.067 104.956 456.627 99.3266 451.986 95.9548L325.939 4.37642C321.443 1.1098 315.57 0.462427 310.486 2.64032L309.997 2.85968L118.664 92.6148C115.695 94.0075 113.241 96.2902 111.635 99.1374L111.326 99.7142L3.08953 311.835C1.20161 315.535 0.85426 319.826 2.11246 323.773L2.23915 324.154L59.3047 488.588Z" stroke="url(#paint0_linear_1_1369)" stroke-width="2.73838"/>
<defs>
<linearGradient id="paint0_linear_1_1369" x1="61.92" y1="500.301" x2="419.781" y2="7.74719" gradientUnits="userSpaceOnUse">
<stop stop-color="#FF1CF7"/>
<stop offset="1" stop-color="#00F0FF"/>
</linearGradient>
</defs>
</svg>
