<svg width="426" height="635" viewBox="0 0 426 635" fill="none" xmlns="http://www.w3.org/2000/svg">
<path opacity="0.115942" d="M224.278 631.046C229.85 634.706 237.099 634.449 242.388 630.467L242.893 630.071L392.208 507.877C395.353 505.303 397.377 501.617 397.867 497.593L397.91 497.203L424.157 225.195C424.457 222.082 423.823 218.954 422.343 216.21L422.036 215.666L299.848 9.09881C296.864 4.05395 291.325 1.08346 285.472 1.39017L116.217 10.2604C110.547 10.5576 105.491 13.8825 102.961 18.9351L102.725 19.4296L2.79934 237.637C1.49704 240.481 1.07306 243.644 1.57384 246.721L1.68622 247.336L56.2219 515.11C57.0328 519.092 59.3499 522.601 62.6814 524.91L63.0068 525.129L224.278 631.046Z" stroke="url(#paint0_linear_1_1356)" stroke-width="2.73838"/>
<defs>
<linearGradient id="paint0_linear_1_1356" x1="234.032" y1="639.091" x2="197.728" y2="-53.6414" gradientUnits="userSpaceOnUse">
<stop stop-color="#FF1CF7"/>
<stop offset="1" stop-color="#00F0FF"/>
</linearGradient>
</defs>
</svg>
