<svg width="324" height="336" viewBox="0 0 324 336" fill="none" xmlns="http://www.w3.org/2000/svg">
<path opacity="0.811594" d="M60.9782 23.1062C55.7802 24.016 51.3948 27.4642 49.2763 32.2729L49.0783 32.7426L2.51024 148.422C0.834337 152.586 1.01492 157.259 2.99327 161.272L3.19031 161.659L69.9413 288.173C71.8657 291.821 75.1403 294.564 79.0566 295.822L79.4376 295.939L209.029 333.991C213.996 335.45 219.362 334.376 223.384 331.119L316.594 255.639C320.491 252.483 322.646 247.668 322.419 242.678L322.389 242.194L312.111 107.524C311.797 103.412 309.885 99.5917 306.793 96.8787L306.49 96.6197L196.618 5.02414C193.17 2.15038 188.667 0.887182 184.24 1.53727L183.812 1.6062L60.9782 23.1062Z" stroke="url(#paint0_linear_1_1404)" stroke-width="2.73838"/>
<defs>
<linearGradient id="paint0_linear_1_1404" x1="51.3629" y1="23.3979" x2="290.945" y2="319.257" gradientUnits="userSpaceOnUse">
<stop stop-color="#FF1CF7"/>
<stop offset="1" stop-color="#00F0FF"/>
</linearGradient>
</defs>
</svg>
