<svg width="477" height="450" viewBox="0 0 477 450" fill="none" xmlns="http://www.w3.org/2000/svg">
<path opacity="0.376812" d="M15.3198 385.879C15.8413 392.129 20.0117 397.455 25.9073 399.48L26.4837 399.665L186.461 447.874C190.481 449.085 194.813 448.642 198.498 446.653L198.853 446.456L393.987 334.598C396.896 332.931 399.193 330.383 400.551 327.33L400.81 326.712L474.526 140.116C476.615 134.826 475.694 128.82 472.115 124.4L377.222 7.2163C373.754 2.93408 368.312 0.782526 362.876 1.51086L362.35 1.5905L164.506 34.9006C161.199 35.4573 158.162 37.0523 155.83 39.4456L155.373 39.935L5.38911 207.548C2.58941 210.677 1.15624 214.788 1.39704 218.969L1.42541 219.374L15.3198 385.879Z" stroke="url(#paint0_linear_1_1374)" stroke-width="2.73838"/>
<defs>
<linearGradient id="paint0_linear_1_1374" x1="14.9227" y1="397.614" x2="463.343" y2="34.4902" gradientUnits="userSpaceOnUse">
<stop stop-color="#FF1CF7"/>
<stop offset="1" stop-color="#00F0FF"/>
</linearGradient>
</defs>
</svg>
