<svg width="278" height="278" viewBox="0 0 278 278" fill="none" xmlns="http://www.w3.org/2000/svg">
<path opacity="0.985507" d="M136.945 2.62738C132.612 0.787401 127.691 0.981184 123.524 3.13765L123.124 3.35173L28.0548 56.0668C23.9967 58.317 21.1415 62.2342 20.2334 66.7693L20.1517 67.2108L1.59825 175.798C0.822953 180.335 2.0685 184.978 4.99343 188.514L5.2817 188.852L77.4285 271.243C80.6157 274.882 85.296 276.859 90.1272 276.606L198.324 270.936C203.004 270.691 207.325 268.378 210.126 264.64L210.392 264.275L273.532 174.794C276.186 171.032 277.062 166.306 275.945 161.855L275.83 161.426L246.028 55.3731C244.773 50.9057 241.618 47.2245 237.414 45.2967L237.003 45.1163L136.945 2.62738Z" stroke="url(#paint0_linear_1_1416)" stroke-width="2.73838"/>
<defs>
<linearGradient id="paint0_linear_1_1416" x1="129.778" y1="-1.90661" x2="145.626" y2="300.505" gradientUnits="userSpaceOnUse">
<stop stop-color="#FF1CF7"/>
<stop offset="1" stop-color="#00F0FF"/>
</linearGradient>
</defs>
</svg>
