<svg width="421" height="607" viewBox="0 0 421 607" fill="none" xmlns="http://www.w3.org/2000/svg">
<path opacity="0.188406" d="M130.344 600.334C134.76 605.199 141.712 606.799 147.785 604.409L148.369 604.165L318.428 529.245C322.181 527.592 325.136 524.544 326.676 520.755L326.821 520.386L418.615 277.112C419.739 274.132 419.932 270.887 419.178 267.803L419.015 267.189L355.629 46.9468C354.019 41.3516 349.455 37.1 343.76 35.8894L182.985 1.71577C177.468 0.543045 171.76 2.40915 168.002 6.57869L167.645 6.98947L20.1582 182.409C18.1087 184.847 16.8484 187.844 16.5366 191.004L16.487 191.637L1.39696 451.215C1.159 455.308 2.52556 459.328 5.1972 462.425L5.45992 462.722L130.344 600.334Z" stroke="url(#paint0_linear_1_1361)" stroke-width="2.73838"/>
<defs>
<linearGradient id="paint0_linear_1_1361" x1="137.625" y1="610.396" x2="275.195" y2="-36.8206" gradientUnits="userSpaceOnUse">
<stop stop-color="#FF1CF7"/>
<stop offset="1" stop-color="#00F0FF"/>
</linearGradient>
</defs>
</svg>
