<svg width="471" height="486" viewBox="0 0 471 486" fill="none" xmlns="http://www.w3.org/2000/svg">
<path opacity="0.333333" d="M41.4383 449.8C42.9059 455.967 47.9197 460.633 54.1321 461.684L54.7366 461.775L224.55 483.785C228.686 484.321 232.86 483.195 236.161 480.664L236.478 480.414L417.533 334.05C420.105 331.971 421.953 329.138 422.824 325.959L422.984 325.319L469.232 123.532C470.509 117.96 468.666 112.132 464.418 108.307L350.146 5.41565C346.03 1.70995 340.283 0.446698 335.01 2.05564L334.502 2.22065L138.654 69.3068C135.525 70.3785 132.819 72.4054 130.911 75.0936L130.54 75.6402L3.90345 271.003C1.63493 274.502 0.850451 278.754 1.70965 282.824L1.79736 283.217L41.4383 449.8Z" stroke="url(#paint0_linear_1_1371)" stroke-width="2.73838"/>
<defs>
<linearGradient id="paint0_linear_1_1371" x1="42.8413" y1="461.614" x2="441.646" y2="18.6958" gradientUnits="userSpaceOnUse">
<stop stop-color="#FF1CF7"/>
<stop offset="1" stop-color="#00F0FF"/>
</linearGradient>
</defs>
</svg>
