<svg width="475" height="475" viewBox="0 0 475 475" fill="none" xmlns="http://www.w3.org/2000/svg">
<path opacity="0.347826" d="M32.6588 429.708C33.8127 435.927 38.5623 440.834 44.6941 442.218L45.2919 442.341L212.487 473.363C216.601 474.127 220.845 473.224 224.287 470.863L224.618 470.63L411.274 335.464C413.968 333.513 415.972 330.765 417.007 327.616L417.202 326.981L473.032 129.595C474.587 124.097 473.048 118.187 469.007 114.147L360.853 5.99258C356.939 2.07843 351.27 0.511271 345.921 1.83115L345.405 1.96813L148.019 57.7984C144.819 58.7037 141.992 60.5962 139.937 63.1969L139.536 63.7262L4.37005 250.382C1.91572 253.771 0.912068 257.992 1.56809 262.114L1.63658 262.513L32.6588 429.708Z" stroke="url(#paint0_linear_1_1372)" stroke-width="2.73838"/>
<defs>
<linearGradient id="paint0_linear_1_1372" x1="33.4593" y1="441.541" x2="450.912" y2="24.0879" gradientUnits="userSpaceOnUse">
<stop stop-color="#FF1CF7"/>
<stop offset="1" stop-color="#00F0FF"/>
</linearGradient>
</defs>
</svg>
