<svg width="467" height="658" viewBox="0 0 467 658" fill="none" xmlns="http://www.w3.org/2000/svg">
<path opacity="0.0434783" d="M329.225 655.739C335.632 657.917 342.687 655.758 346.784 650.432L347.171 649.908L462.745 486.193C465.072 482.896 466.043 478.837 465.468 474.853L465.407 474.468L417.374 191.544C416.859 188.507 415.465 185.692 413.372 183.444L412.944 183.002L234.706 5.94938C230.515 1.78669 224.348 0.316952 218.731 2.14221L52.3879 56.1903C46.9458 57.9586 42.9043 62.5315 41.7994 68.1168L41.7016 68.6603L1.57259 316.664C1.08054 319.705 1.4911 322.819 2.74671 325.623L3.00982 326.18L130.449 583.302C132.241 586.918 135.348 589.703 139.126 591.093L139.494 591.223L329.225 655.739Z" stroke="url(#paint0_linear_1_1351)" stroke-width="2.73838"/>
<defs>
<linearGradient id="paint0_linear_1_1351" x1="340.906" y1="661.158" x2="116.298" y2="-30.114" gradientUnits="userSpaceOnUse">
<stop stop-color="#FF1CF7"/>
<stop offset="1" stop-color="#00F0FF"/>
</linearGradient>
</defs>
</svg>
