<svg width="315" height="332" viewBox="0 0 315 332" fill="none" xmlns="http://www.w3.org/2000/svg">
<path opacity="0.826087" d="M67.5437 16.8436C62.3539 17.4952 57.8382 20.6787 55.4745 25.3203L55.2523 25.7738L2.8625 137.337C0.951267 141.407 0.873589 146.093 2.63492 150.216L2.81114 150.613L61.4311 277.979C63.1678 281.752 66.3226 284.682 70.2013 286.137L70.579 286.273L196.076 329.763C200.941 331.449 206.322 330.65 210.487 327.624L306.65 257.757C310.685 254.825 313.085 250.163 313.14 245.194L313.139 244.713L310.557 111.919C310.477 107.766 308.758 103.819 305.787 100.932L305.496 100.656L202.478 5.54642C199.174 2.49626 194.729 1.00889 190.268 1.4444L189.836 1.49274L67.5437 16.8436Z" stroke="url(#paint0_linear_1_1405)" stroke-width="2.73838"/>
<defs>
<linearGradient id="paint0_linear_1_1405" x1="58.02" y1="16.6589" x2="277.807" y2="319.17" gradientUnits="userSpaceOnUse">
<stop stop-color="#FF1CF7"/>
<stop offset="1" stop-color="#00F0FF"/>
</linearGradient>
</defs>
</svg>
