<svg width="361" height="339" viewBox="0 0 361 339" fill="none" xmlns="http://www.w3.org/2000/svg">
<path opacity="0.73913" d="M24.1928 55.9597C19.1797 58.177 15.6908 62.8329 14.9523 68.2391L14.8893 68.7649L1.45264 199.708C1.0001 204.118 2.42632 208.508 5.36837 211.807L5.65765 212.123L113.143 326.261C115.869 329.155 119.584 330.909 123.541 331.18L123.925 331.201L269.702 337.614C274.987 337.846 280.036 335.412 283.146 331.132L356.615 230.01C359.627 225.864 360.43 220.522 358.791 215.688L358.625 215.222L307.479 78.5613C306.085 74.8377 303.337 71.7833 299.793 70.0026L299.448 69.8341L157.681 2.87992C153.673 0.986767 149.059 0.872106 144.97 2.5495L144.575 2.717L24.1928 55.9597Z" stroke="url(#paint0_linear_1_1399)" stroke-width="2.73838"/>
<defs>
<linearGradient id="paint0_linear_1_1399" x1="14.5415" y1="58.7298" x2="349.044" y2="301.76" gradientUnits="userSpaceOnUse">
<stop stop-color="#FF1CF7"/>
<stop offset="1" stop-color="#00F0FF"/>
</linearGradient>
</defs>
</svg>
