<svg width="429" height="339" viewBox="0 0 429 339" fill="none" xmlns="http://www.w3.org/2000/svg">
<path opacity="0.623188" d="M5.72303 109.479C1.7433 113.651 0.37068 119.651 2.10852 125.117L2.28701 125.644L50.2689 260.01C51.7303 264.102 54.8154 267.402 58.785 269.139L59.1717 269.303L224.509 336.472C228.004 337.892 231.889 338.009 235.457 336.808L235.802 336.688L389.2 281.091C394.312 279.238 398.106 274.878 399.237 269.559L426.89 139.459C427.985 134.307 426.431 128.961 422.772 125.203L422.412 124.844L304.888 11.6593C302.171 9.04234 298.607 7.49092 294.849 7.2798L294.485 7.26335L116.121 1.37782C111.778 1.23453 107.576 2.89202 104.502 5.94624L104.208 6.2461L5.72303 109.479Z" stroke="url(#paint0_linear_1_1391)" stroke-width="2.73838"/>
<defs>
<linearGradient id="paint0_linear_1_1391" x1="-2.55102" y1="116.168" x2="452.575" y2="212.908" gradientUnits="userSpaceOnUse">
<stop stop-color="#FF1CF7"/>
<stop offset="1" stop-color="#00F0FF"/>
</linearGradient>
</defs>
</svg>
