<svg width="439" height="550" viewBox="0 0 439 550" fill="none" xmlns="http://www.w3.org/2000/svg">
<path opacity="0.26087" d="M86.4401 540.212C89.4526 545.93 95.6356 549.211 102.022 548.543L102.64 548.467L279.411 522.94C283.505 522.348 287.197 520.172 289.698 516.89L289.936 516.569L434.331 316.735C436.232 314.105 437.272 310.957 437.317 307.723L437.312 307.075L431.413 88.9554C431.256 83.1826 427.956 77.9571 422.811 75.3354L281.019 3.08868C276.034 0.548972 270.09 0.846132 265.395 3.83717L264.944 4.13546L85.0137 127.57C82.3382 129.406 80.2986 132.019 79.1659 135.048L78.9518 135.66L2.15507 369.938C0.866565 373.869 1.17629 378.143 3.00657 381.841L3.18839 382.197L86.4401 540.212Z" stroke="url(#paint0_linear_1_1366)" stroke-width="2.73838"/>
<defs>
<linearGradient id="paint0_linear_1_1366" x1="90.865" y1="551.552" x2="376.493" y2="-9.02501" gradientUnits="userSpaceOnUse">
<stop stop-color="#FF1CF7"/>
<stop offset="1" stop-color="#00F0FF"/>
</linearGradient>
</defs>
</svg>
