<svg width="280" height="293" viewBox="0 0 280 293" fill="none" xmlns="http://www.w3.org/2000/svg">
<path opacity="0.956522" d="M119.301 2.10846C114.714 0.655368 109.723 1.37807 105.742 4.05198L105.36 4.31658L14.8151 69.0799C11.0626 71.7642 8.6795 75.9516 8.27791 80.533L8.24536 80.978L1.40006 196.436C1.13318 200.937 2.8045 205.33 5.9797 208.512L6.29141 208.817L88.8169 287.087C92.3744 290.462 97.2987 291.99 102.141 291.223L211.02 273.978C215.712 273.235 219.81 270.42 222.19 266.328L222.415 265.928L276.714 165.986C278.867 162.024 279.219 157.336 277.695 153.107L277.541 152.699L235.353 45.0078C233.67 40.7118 230.193 37.3742 225.85 35.8623L225.427 35.7223L119.301 2.10846Z" stroke="url(#paint0_linear_1_1414)" stroke-width="2.73838"/>
<defs>
<linearGradient id="paint0_linear_1_1414" x1="111.538" y1="-1.7896" x2="160.939" y2="310.116" gradientUnits="userSpaceOnUse">
<stop stop-color="#FF1CF7"/>
<stop offset="1" stop-color="#00F0FF"/>
</linearGradient>
</defs>
</svg>
