<svg width="405" height="345" viewBox="0 0 405 345" fill="none" xmlns="http://www.w3.org/2000/svg">
<path opacity="0.666667" d="M7.46326 89.9291C2.98458 93.4142 0.732385 99.0248 1.5312 104.615L1.6182 105.156L25.9839 241.782C26.7539 246.1 29.2839 249.896 32.9572 252.268L33.3161 252.494L179.114 341.217C182.403 343.219 186.308 343.947 190.091 343.272L190.457 343.202L344.31 311.983C349.598 310.91 353.971 307.209 355.905 302.172L402.579 180.582C404.452 175.702 403.785 170.223 400.821 165.943L400.527 165.532L307.082 39.3848C304.789 36.2901 301.447 34.1432 297.689 33.3425L297.324 33.2694L129.608 1.64559C125.298 0.832962 120.851 1.85128 117.329 4.44336L116.991 4.69967L7.46326 89.9291Z" stroke="url(#paint0_linear_1_1394)" stroke-width="2.73838"/>
<defs>
<linearGradient id="paint0_linear_1_1394" x1="-1.55076" y1="95.2042" x2="415.502" y2="255.296" gradientUnits="userSpaceOnUse">
<stop stop-color="#FF1CF7"/>
<stop offset="1" stop-color="#00F0FF"/>
</linearGradient>
</defs>
</svg>
