<svg width="476" height="463" viewBox="0 0 476 463" fill="none" xmlns="http://www.w3.org/2000/svg">
<path opacity="0.362319" d="M23.885 407.496C24.7212 413.729 29.1794 418.846 35.1928 420.552L35.7795 420.706L199.344 460.396L199.345 460.396C203.412 461.382 207.699 460.71 211.262 458.535L211.604 458.32L402.56 334.942C405.36 333.132 407.509 330.483 408.706 327.383L408.932 326.757L473.801 134.851C475.623 129.458 474.394 123.502 470.585 119.271L369.118 6.58038C365.428 2.48212 359.873 0.621617 354.48 1.64512L353.959 1.75333L156.324 46.2076C153.071 46.9394 150.139 48.683 147.947 51.1802L147.518 51.6895L4.85546 228.702C2.22927 231.961 1.01245 236.126 1.46113 240.276L1.50928 240.677L23.885 407.496Z" stroke="url(#paint0_linear_1_1373)" stroke-width="2.73838"/>
<defs>
<linearGradient id="paint0_linear_1_1373" x1="24.0836" y1="419.277" x2="457.194" y2="29.302" gradientUnits="userSpaceOnUse">
<stop stop-color="#FF1CF7"/>
<stop offset="1" stop-color="#00F0FF"/>
</linearGradient>
</defs>
</svg>
