<svg width="414" height="344" viewBox="0 0 414 344" fill="none" xmlns="http://www.w3.org/2000/svg">
<path opacity="0.652174" d="M6.85786 96.5486C2.53221 100.27 0.564487 106.026 1.67727 111.594L1.79457 112.132L34.0106 248.467C35.0161 252.722 37.7404 256.363 41.5242 258.528L41.8939 258.733L194.541 340.75C197.91 342.56 201.818 343.083 205.538 342.228L205.897 342.141L360.039 302.899C365.283 301.564 369.476 297.634 371.148 292.488L411.682 167.738C413.302 162.753 412.336 157.3 409.131 153.181L408.814 152.786L307.176 30.4354C304.732 27.4935 301.306 25.5431 297.537 24.94L297.171 24.8858L125.469 1.51561C121.137 0.926049 116.761 2.16219 113.381 4.91597L113.057 5.18723L6.85786 96.5486Z" stroke="url(#paint0_linear_1_1393)" stroke-width="2.73838"/>
<defs>
<linearGradient id="paint0_linear_1_1393" x1="-1.9365" y1="102.305" x2="428.849" y2="242.276" gradientUnits="userSpaceOnUse">
<stop stop-color="#FF1CF7"/>
<stop offset="1" stop-color="#00F0FF"/>
</linearGradient>
</defs>
</svg>
