<svg width="372" height="340" viewBox="0 0 372 340" fill="none" xmlns="http://www.w3.org/2000/svg">
<path opacity="0.710145" d="M9.37119 69.4451C4.5365 72.1759 1.50916 77.2428 1.37385 82.7676L1.37014 83.3033L2.63645 217.576C2.67802 221.983 4.56419 226.164 7.82445 229.11L8.14443 229.392L131.303 334.777C134.28 337.324 138.096 338.667 142.003 338.552L142.381 338.536L292.279 330.521C297.598 330.237 302.411 327.283 305.074 322.67L368.521 212.777C371.101 208.309 371.323 202.871 369.141 198.218L368.922 197.771L300.915 63.9479C299.14 60.4551 296.129 57.7538 292.475 56.3644L292.12 56.2337L139.275 2.26764C135.119 0.800319 130.545 1.14446 126.662 3.20159L126.288 3.40536L9.37119 69.4451Z" stroke="url(#paint0_linear_1_1397)" stroke-width="2.73838"/>
<defs>
<linearGradient id="paint0_linear_1_1397" x1="-0.0945748" y1="73.2191" x2="368.934" y2="286.278" gradientUnits="userSpaceOnUse">
<stop stop-color="#FF1CF7"/>
<stop offset="1" stop-color="#00F0FF"/>
</linearGradient>
</defs>
</svg>
