<svg width="333" height="339" viewBox="0 0 333 339" fill="none" xmlns="http://www.w3.org/2000/svg">
<path opacity="0.797101" d="M54.1327 29.5056C48.94 30.6763 44.7002 34.3841 42.8381 39.3463L42.6652 39.831L2.20381 159.331C0.767177 163.575 1.20556 168.222 3.3945 172.115L3.61171 172.489L78.5668 297.653C80.6708 301.166 84.0558 303.719 88.0007 304.779L88.384 304.878L221.85 337.186C226.907 338.41 232.243 337.06 236.111 333.578L326.05 252.596C329.796 249.223 331.697 244.27 331.186 239.275L331.129 238.791L312.948 102.679C312.406 98.6197 310.307 94.9364 307.103 92.4017L306.79 92.1602L190.146 4.53256C186.565 1.84181 182.014 0.80528 177.631 1.66772L177.208 1.757L54.1327 29.5056Z" stroke="url(#paint0_linear_1_1403)" stroke-width="2.73838"/>
<defs>
<linearGradient id="paint0_linear_1_1403" x1="44.4505" y1="30.283" x2="303.745" y2="318.259" gradientUnits="userSpaceOnUse">
<stop stop-color="#FF1CF7"/>
<stop offset="1" stop-color="#00F0FF"/>
</linearGradient>
</defs>
</svg>
