<svg width="279" height="286" viewBox="0 0 279 286" fill="none" xmlns="http://www.w3.org/2000/svg">
<path opacity="0.971014" d="M128.367 2.34991C123.906 0.700359 118.948 1.15533 114.869 3.57004L114.476 3.80991L21.565 62.5336C17.657 65.0036 15.0366 69.0599 14.3824 73.6215L14.3257 74.064L1.47364 186.143C0.955299 190.664 2.41654 195.182 5.46749 198.54L5.7677 198.861L83.0394 279.283C86.4114 282.792 91.2157 284.547 96.0558 284.039L204.649 272.625C209.338 272.132 213.552 269.567 216.146 265.649L216.393 265.267L275.254 170.537C277.656 166.671 278.267 161.963 276.945 157.622L276.811 157.204L240.937 50.2461C239.467 45.863 236.15 42.3534 231.875 40.6336L231.459 40.4728L128.367 2.34991Z" stroke="url(#paint0_linear_1_1415)" stroke-width="2.73838"/>
<defs>
<linearGradient id="paint0_linear_1_1415" x1="120.902" y1="-1.87264" x2="153.205" y2="305.472" gradientUnits="userSpaceOnUse">
<stop stop-color="#FF1CF7"/>
<stop offset="1" stop-color="#00F0FF"/>
</linearGradient>
</defs>
</svg>
