<svg width="483" height="379" viewBox="0 0 483 379" fill="none" xmlns="http://www.w3.org/2000/svg">
<path opacity="0.478261" d="M1.92499 259.339C0.326296 265.201 2.24469 271.44 6.81333 275.392L7.26303 275.768L129.617 373.942C132.934 376.603 137.182 377.807 141.391 377.291L141.799 377.235L345.233 346.884C348.769 346.356 352.017 344.643 354.446 342.029L354.678 341.773L477.649 203.496C481.366 199.317 482.587 193.481 480.859 188.162L436.566 51.8411C434.892 46.6889 430.693 42.7709 425.466 41.4433L424.956 41.3223L244.193 1.73451C240.701 0.96974 237.056 1.41623 233.856 2.99486L233.547 3.1516L51.1256 98.1723C47.354 100.137 44.5428 103.54 43.3204 107.601L43.2065 107.997L1.92499 259.339Z" stroke="url(#paint0_linear_1_1381)" stroke-width="2.73838"/>
<defs>
<linearGradient id="paint0_linear_1_1381" x1="-2.35042" y1="269.81" x2="502.344" y2="105.825" gradientUnits="userSpaceOnUse">
<stop stop-color="#FF1CF7"/>
<stop offset="1" stop-color="#00F0FF"/>
</linearGradient>
</defs>
</svg>
