<svg width="476" height="361" viewBox="0 0 476 361" fill="none" xmlns="http://www.w3.org/2000/svg">
<path opacity="0.507246" d="M2.41154 229.08C0.259251 234.699 1.50166 241.035 5.57165 245.422L5.97398 245.84L114.791 354.816C117.808 357.837 121.918 359.501 126.176 359.436L126.589 359.424L326.647 351.115C330.254 350.965 333.697 349.58 336.402 347.199L336.661 346.965L469.55 224.599C473.642 220.831 475.443 215.182 474.286 209.74L444.919 71.5793C443.799 66.3075 440.064 61.987 435.039 60.1056L434.548 59.9312L263.378 2.19556C259.956 1.04157 256.246 1.09926 252.868 2.3526L252.542 2.47779L66.3999 76.2579C62.4303 77.8314 59.2752 80.9466 57.6487 84.8821L57.4964 85.2649L2.41154 229.08Z" stroke="url(#paint0_linear_1_1383)" stroke-width="2.73838"/>
<defs>
<linearGradient id="paint0_linear_1_1383" x1="-2.83674" y1="238.954" x2="503.4" y2="131.35" gradientUnits="userSpaceOnUse">
<stop stop-color="#FF1CF7"/>
<stop offset="1" stop-color="#00F0FF"/>
</linearGradient>
</defs>
</svg>
