<svg width="481" height="371" viewBox="0 0 481 371" fill="none" xmlns="http://www.w3.org/2000/svg">
<path opacity="0.492754" d="M2.15382 244.769C0.271241 250.526 1.8543 256.834 6.18675 261.018L6.61449 261.416L122.525 365.384C125.703 368.234 129.895 369.672 134.142 369.379L134.553 369.346L336.952 350.097C340.534 349.756 343.889 348.201 346.463 345.696L346.71 345.45L475.103 214.821C479.02 210.836 480.536 205.077 479.09 199.679L442.198 61.9971C440.797 56.7685 436.819 52.6351 431.676 51.0247L431.175 50.8775L254.668 1.94491C251.2 0.983493 247.51 1.23787 244.212 2.65887L243.894 2.79974L58.9873 87.3297C55.1051 89.1044 52.1132 92.3738 50.6848 96.3839L50.5513 96.7742L2.15382 244.769Z" stroke="url(#paint0_linear_1_1382)" stroke-width="2.73838"/>
<defs>
<linearGradient id="paint0_linear_1_1382" x1="-2.62587" y1="254.971" x2="504.503" y2="119.086" gradientUnits="userSpaceOnUse">
<stop stop-color="#FF1CF7"/>
<stop offset="1" stop-color="#00F0FF"/>
</linearGradient>
</defs>
</svg>
