<svg width="443" height="654" viewBox="0 0 443 654" fill="none" xmlns="http://www.w3.org/2000/svg">
<path opacity="0.0724638" d="M288.279 651.201C294.396 654.001 301.59 652.599 306.209 647.774L306.648 647.297L437.217 499.246C439.893 496.212 441.296 492.268 441.144 488.235L441.124 487.845L423.558 206.919C423.364 203.826 422.263 200.863 420.399 198.399L420.016 197.913L263.574 7.13465C259.84 2.58121 253.878 0.490066 248.118 1.71438L79.1674 37.6259C73.5875 38.812 69.1 42.9176 67.4077 48.3356L67.2523 48.864L1.93226 286.78C1.11186 289.768 1.19142 292.927 2.1549 295.862L2.36007 296.447L100.574 560.231C101.986 564.022 104.801 567.121 108.428 568.891L108.782 569.057L288.279 651.201Z" stroke="url(#paint0_linear_1_1353)" stroke-width="2.73838"/>
<defs>
<linearGradient id="paint0_linear_1_1353" x1="299.268" y1="657.736" x2="150.916" y2="-40.206" gradientUnits="userSpaceOnUse">
<stop stop-color="#FF1CF7"/>
<stop offset="1" stop-color="#00F0FF"/>
</linearGradient>
</defs>
</svg>
