<svg width="341" height="341" viewBox="0 0 341 341" fill="none" xmlns="http://www.w3.org/2000/svg">
<path opacity="0.782609" d="M47.0275 36.0328C41.8532 37.4666 37.7751 41.4282 36.1797 46.5303L36.033 47.0273L1.94559 170.046C0.75132 174.356 1.44361 178.964 3.8358 182.727L4.07251 183.088L87.2859 306.405C89.5614 309.777 93.0478 312.136 97.0131 312.998L97.3979 313.077L234.512 339.345C239.65 340.33 244.942 338.704 248.641 335.004L335.005 248.641C338.588 245.057 340.226 239.979 339.43 234.994L339.346 234.512L313.077 97.3977C312.312 93.4024 310.035 89.862 306.728 87.5092L306.405 87.2857L183.088 4.07231C179.381 1.5707 174.793 0.763282 170.465 1.83604L170.047 1.9454L47.0275 36.0328Z" stroke="url(#paint0_linear_1_1402)" stroke-width="2.73838"/>
<defs>
<linearGradient id="paint0_linear_1_1402" x1="37.3033" y1="37.3033" x2="316.183" y2="316.183" gradientUnits="userSpaceOnUse">
<stop stop-color="#FF1CF7"/>
<stop offset="1" stop-color="#00F0FF"/>
</linearGradient>
</defs>
</svg>
