<svg width="275" height="269" viewBox="0 0 275 269" fill="none" xmlns="http://www.w3.org/2000/svg">
<path d="M144.333 2.92907C140.15 0.914711 135.299 0.852117 131.074 2.74057L130.667 2.92907L34.1279 49.4201C29.9451 51.4344 26.8714 55.188 25.7138 59.6684L25.6074 60.104L1.76462 164.569C0.731627 169.095 1.74953 173.838 4.53058 177.536L4.80503 177.891L71.613 261.665C74.601 265.411 79.1326 267.594 83.925 267.594H191.076C195.718 267.594 200.116 265.546 203.103 262.011L203.388 261.665L270.195 177.891C273.089 174.261 274.23 169.546 273.329 165.007L273.236 164.569L249.392 60.104C248.359 55.5777 245.384 51.7457 241.273 49.6203L240.872 49.4201L144.333 2.92907Z" stroke="url(#paint0_linear_1_1417)" stroke-width="2.73838"/>
<defs>
<linearGradient id="paint0_linear_1_1417" x1="137.5" y1="-1.88109" x2="137.5" y2="293.759" gradientUnits="userSpaceOnUse">
<stop stop-color="#FF1CF7"/>
<stop offset="1" stop-color="#00F0FF"/>
</linearGradient>
</defs>
</svg>
