<svg width="1400" height="44" viewBox="0 0 1400 44" fill="none" xmlns="http://www.w3.org/2000/svg">
<g clip-path="url(#clip0_1_1868)">
<g clip-path="url(#clip1_1_1868)">
<g clip-path="url(#clip2_1_1868)">
<path d="M47.2349 3.81057L28.8081 17.6369C27.9421 14.2361 25.9406 11.2132 23.1191 9.04471C20.2977 6.87618 16.8167 5.68531 13.2249 5.65979H0V37.4408H13.2249C16.8359 37.4884 20.3541 36.3247 23.1907 34.1446C26.0274 31.9643 28.0105 28.8998 28.8081 25.4638L47.2349 39.2901L65.6615 25.4638V37.4408H86.4467V30.99H72.7368V5.63828H65.1767V17.6153L47.6977 31.4415L43.9287 28.2162L52.4367 21.7654L61.4075 14.863L56.2057 10.7129L38.7269 24.0661L34.9577 20.8407L52.4367 7.93908L47.2349 3.78906V3.81057ZM7.07531 12.0891H12.74C13.9122 12.0913 15.0701 12.3407 16.1344 12.8202C17.2154 13.3052 18.1889 13.9919 18.9998 14.8415C19.8532 15.7357 20.5263 16.7789 20.9835 17.9163C21.9234 20.3338 21.9234 23.0033 20.9835 25.4208C20.5559 26.5548 19.9211 27.604 19.11 28.5171C18.3216 29.4148 17.3541 30.1464 16.2666 30.6675C15.1464 31.1951 13.9178 31.4672 12.6739 31.4631H7.07531V12.1106V12.0891ZM110.031 30.99V37.4408H89.2679V5.63828H96.8282V30.99H110.053H110.031Z" fill="#FAFAFA"/>
</g>
</g>
<g clip-path="url(#clip3_1_1868)">
<g clip-path="url(#clip4_1_1868)">
<path d="M260.751 32.5158C262.798 32.5606 264.779 31.7751 266.259 30.3314L268.992 33.3341C267.186 35.2267 264.69 36.6284 260.8 36.6284C254.135 36.6284 249.833 32.1173 249.833 26.0125C249.806 24.6442 250.044 23.284 250.533 22.0096C251.022 20.7353 251.752 19.5718 252.682 18.5858C253.612 17.5997 254.723 16.8105 255.952 16.2633C257.181 15.716 258.504 15.4215 259.845 15.3965H260.214C266.831 15.3965 270.582 20.5337 270.254 27.6632H254.595C255.153 30.6231 257.189 32.5087 260.751 32.5087V32.5158ZM265.52 24.2408C265.102 21.48 263.484 19.4451 260.242 19.4451C258.88 19.3639 257.539 19.8142 256.491 20.7047C255.442 21.5952 254.764 22.8593 254.595 24.2408H265.52Z" fill="#FAFAFA"/>
<path d="M158.053 32.2952L170.094 19.815H158.339V15.8945H175.671V19.8933L163.631 32.3735H175.832V36.2869H158.053V32.2952Z" fill="#FAFAFA"/>
<path d="M189.35 32.5158C191.397 32.5606 193.378 31.7751 194.858 30.3314L197.591 33.3341C195.785 35.2267 193.289 36.6284 189.399 36.6284C182.734 36.6284 178.432 32.1173 178.432 26.0125C178.405 24.6454 178.643 23.2863 179.131 22.0128C179.619 20.7394 180.348 19.5766 181.276 18.5907C182.205 17.6049 183.314 16.8154 184.542 16.2673C185.769 15.7192 187.09 15.4233 188.43 15.3965H188.8C195.416 15.3965 199.167 20.5337 198.839 27.6632H183.194C183.752 30.6231 185.788 32.5087 189.35 32.5087V32.5158ZM194.119 24.2408C193.701 21.48 192.083 19.4451 188.841 19.4451C187.48 19.3639 186.138 19.8142 185.09 20.7047C184.041 21.5952 183.363 22.8593 183.194 24.2408H194.119Z" fill="#FAFAFA"/>
<path d="M224.825 26.0334C224.825 19.5087 229.601 15.4316 234.858 15.4316C236.119 15.415 237.369 15.6802 238.519 16.2088C239.669 16.7373 240.692 17.5163 241.516 18.4912V6.45215H245.769V36.2295H241.516V33.3834C240.708 34.3991 239.686 35.2162 238.526 35.7742C237.366 36.3321 236.098 36.6166 234.816 36.6066C233.493 36.5964 232.185 36.3203 230.966 35.7941C229.748 35.268 228.643 34.502 227.715 33.54C226.786 32.578 226.053 31.4388 225.556 30.1874C225.059 28.936 224.808 27.597 224.818 26.2468C224.818 26.1614 224.818 26.0832 224.818 26.0049L224.825 26.0334ZM241.753 25.9622C241.726 24.2352 241.032 22.589 239.821 21.3822C238.611 20.1755 236.981 19.5059 235.289 19.5195C233.597 19.5331 231.978 20.2288 230.786 21.4549C229.594 22.681 228.925 24.3382 228.925 26.0654C228.925 27.7926 229.594 29.4497 230.786 30.6758C231.978 31.902 233.597 32.5976 235.289 32.6112C236.981 32.6248 238.611 31.9553 239.821 30.7485C241.032 29.5417 241.726 27.8955 241.753 26.1685V25.9622Z" fill="#FAFAFA"/>
<path d="M273.008 31.9038L276.856 29.8617C277.367 30.7874 278.115 31.5535 279.021 32.0775C279.926 32.6016 280.954 32.8638 281.995 32.8359C284.4 32.8359 285.648 31.5765 285.648 30.1463C285.648 28.5169 283.32 28.1469 280.768 27.6204C277.358 26.9089 273.796 25.742 273.796 21.544C273.796 18.3208 276.801 15.3466 281.542 15.3822C285.272 15.3822 288.04 16.8906 289.608 19.3382L286.087 21.3376C285.594 20.5915 284.921 19.9863 284.135 19.5792C283.348 19.1721 282.472 18.9765 281.59 19.0109C279.304 19.0109 278.139 20.1565 278.139 21.4586C278.139 22.9243 279.987 23.337 282.873 23.9845C286.164 24.696 289.894 25.8202 289.894 30.0609C289.894 32.907 287.489 36.671 281.786 36.6283C277.602 36.6283 274.681 34.9136 273.001 31.8967" fill="#FAFAFA"/>
<path d="M301.453 27.1718L298.078 30.9215V36.2295H293.825V6.45215H298.078V25.948L307.107 15.8301H312.287L304.457 24.5605L312.482 36.2295H307.672L301.453 27.1718Z" fill="#FAFAFA"/>
<path d="M211.967 15.4251C206.913 15.4251 202.681 18.7693 202.681 24.3192V36.2301H207.017V24.8457C207.017 21.5015 208.9 19.5021 212.114 19.5021C215.328 19.5021 216.931 21.5015 216.931 24.8457V36.2301H221.247V24.312C221.247 18.7621 217.015 15.418 211.96 15.418" fill="#FAFAFA"/>
</g>
</g>
<g clip-path="url(#clip5_1_1868)">
<g clip-path="url(#clip6_1_1868)">
<path d="M390.001 40.1782L456.128 34.1416H384.269L390.001 40.1782Z" fill="#FAFAFA"/>
<path d="M471.458 9.24121C470.102 9.27458 468.783 9.72003 467.661 10.524V9.69396H463.219V30.2184H467.661V18.2207C467.63 17.695 467.701 17.1682 467.871 16.6727C468.04 16.1772 468.304 15.7235 468.647 15.3397C468.989 14.9558 469.402 14.6498 469.861 14.4407C470.32 14.2316 470.815 14.1237 471.315 14.1237C471.815 14.1237 472.31 14.2316 472.769 14.4407C473.228 14.6498 473.641 14.9558 473.983 15.3397C474.326 15.7235 474.59 16.1772 474.759 16.6727C474.929 17.1682 475 17.695 474.969 18.2207V30.2939H479.411V18.2207C479.411 13.2405 476.187 9.24121 471.458 9.24121Z" fill="#FAFAFA"/>
<path d="M452.974 9.16602C447.816 9.16602 444.162 13.9198 444.162 19.9564C444.162 26.2949 448.747 30.7469 453.404 30.7469C455.768 30.7469 458.706 29.9168 461.213 26.144L457.273 23.7293C454.264 28.4077 449.177 26.0685 448.604 21.3147H461.357C462.503 14.0708 457.989 9.16602 452.974 9.16602ZM448.891 17.3154C449.822 12.5616 455.983 12.2598 456.843 17.3154H448.891Z" fill="#FAFAFA"/>
<path d="M434.019 24.1906C433.98 25.1311 434.12 26.0705 434.433 26.9525C434.746 27.8345 435.224 28.6411 435.839 29.3242C436.454 30.0073 437.194 30.5529 438.013 30.9284C438.833 31.304 439.716 31.5017 440.61 31.5099C442.12 31.4542 443.595 31.0141 444.909 30.2272L442.043 26.1525C441.603 26.4831 441.079 26.6671 440.539 26.6807C440.243 26.6719 439.953 26.5991 439.686 26.4669C439.418 26.3346 439.18 26.1458 438.985 25.9122C438.79 25.6785 438.643 25.405 438.553 25.1088C438.462 24.8126 438.431 24.5 438.461 24.1906V15.362H442.258V10.4573H438.461V5.32617H434.019V10.4573H431.655V15.362H434.019V24.1906Z" fill="#FAFAFA"/>
<path d="M422.597 30.746C423.954 30.7126 425.273 30.2672 426.395 29.4632V30.2178H430.836V9.69336H426.395V21.7666C426.426 22.2922 426.355 22.819 426.185 23.3145C426.016 23.81 425.752 24.2637 425.409 24.6476C425.067 25.0315 424.653 25.3374 424.194 25.5465C423.736 25.7557 423.241 25.8636 422.741 25.8636C422.241 25.8636 421.746 25.7557 421.287 25.5465C420.828 25.3374 420.415 25.0315 420.072 24.6476C419.73 24.2637 419.466 23.81 419.296 23.3145C419.127 22.819 419.056 22.2922 419.087 21.7666V9.69336H414.645V21.7666C414.645 26.7468 417.869 30.746 422.597 30.746Z" fill="#FAFAFA"/>
<path d="M402.393 21.8422L408.984 30.2934H415.145L406.333 19.3521L413.928 9.69353H407.766L402.393 16.862V2.90234H397.879V30.2934H402.393V21.8422Z" fill="#FAFAFA"/>
<path d="M390.931 29.3132V30.2187H395.373V9.69422H390.931V10.5997C389.72 9.67968 388.268 9.17868 386.775 9.16602C381.76 9.16602 377.892 13.9953 377.892 19.9564C377.892 25.9176 381.689 30.7469 386.775 30.7469C388.27 30.746 389.725 30.2438 390.931 29.3132ZM382.405 20.0319C382.405 16.7872 384.196 14.2217 386.704 14.2217C389.211 14.2217 390.931 16.7872 390.931 20.0319C390.931 23.2766 389.211 25.8421 386.704 25.8421C384.196 25.8421 382.405 23.2766 382.405 20.0319Z" fill="#FAFAFA"/>
<path d="M376.459 13.391C376.457 11.0502 375.573 8.80576 374.002 7.15053C372.43 5.49529 370.299 4.5645 368.077 4.5625H360.482V30.2181H365.139V22.295H368.363L374.023 30.2181H379.826L372.948 20.635C374.046 19.8164 374.939 18.7297 375.55 17.4681C376.162 16.2064 376.473 14.8074 376.459 13.391ZM368.148 17.4657H365.139V9.46724H368.148C369.155 9.46724 370.121 9.88859 370.833 10.6386C371.545 11.3886 371.945 12.4058 371.945 13.4665C371.945 14.5272 371.545 15.5444 370.833 16.2944C370.121 17.0444 369.155 17.4657 368.148 17.4657Z" fill="#FAFAFA"/>
</g>
</g>
<g clip-path="url(#clip7_1_1868)">
<g clip-path="url(#clip8_1_1868)">
<path d="M576.399 31.6537C576.399 31.4823 576.399 31.2251 576.399 31.0538C576.303 31.0538 570.014 31.3965 566.918 31.3965C562.855 31.3965 557.051 31.3109 557.051 31.3109L530.349 31.1394C530.349 31.0538 530.349 30.7109 530.349 30.6251L557.147 30.5395C557.147 30.5395 562.952 30.6251 567.015 30.6251C570.111 30.6251 576.303 30.6251 576.399 30.6251C576.399 30.368 576.303 29.9394 576.303 29.5965C576.206 29.5965 570.014 30.0252 567.015 30.0252C562.952 30.0252 557.147 29.768 557.147 29.768H550.278L541.185 29.5109H530.446C530.446 29.4252 530.543 29.0823 530.543 28.9966C530.93 29.0823 531.22 29.168 532.574 29.168C534.316 29.168 535.09 28.8251 535.09 28.8251C535.09 28.8251 536.347 29.168 537.992 29.168C538.766 29.168 540.507 28.4823 541.572 28.7395C543.313 29.168 543.99 28.4823 543.99 28.4823C543.99 28.4823 544.377 28.9109 545.151 29.0823C545.732 29.168 546.505 28.8251 546.505 28.8251C546.505 28.8251 547.473 29.4252 550.278 29.4252C553.665 29.4252 554.632 27.7966 554.632 27.7966H554.729C554.729 27.7966 554.632 28.2252 554.825 28.5681C555.212 29.2538 556.277 29.3394 556.277 29.3394C556.18 27.4538 557.051 26.1681 557.051 26.1681H557.147L556.954 26.6823C556.567 28.0538 557.244 29.2538 557.244 29.2538L557.534 29.0823C557.534 29.0823 557.244 28.2252 557.534 27.0252C557.824 25.8252 558.308 25.2252 558.308 25.2252H558.502C558.502 25.2252 558.211 26.1681 558.211 26.8537C558.211 27.4538 558.598 28.9109 559.856 29.3394C560.824 29.6823 561.598 28.9109 561.598 28.9109C561.598 28.9109 563.726 29.4252 565.467 29.4252C569.627 29.4252 570.595 28.8251 570.595 28.8251C570.595 28.8251 570.885 29.2538 573.013 29.2538C574.271 29.2538 575.238 29.168 575.819 29.0823C576.012 29.0823 576.109 29.0823 576.206 28.9966C576.206 28.6537 576.109 28.3966 576.012 28.0538C574.851 22.3109 571.078 17.3395 565.854 14.1681L565.564 14.9395C570.691 17.9395 574.464 22.6538 575.529 28.2252C574.948 28.3966 574.078 28.6537 573.013 28.6537C571.369 28.6537 570.982 28.2252 570.982 28.2252C570.982 28.2252 570.401 28.5681 569.337 28.5681C568.37 28.5681 567.692 27.968 567.692 27.968C567.692 27.968 566.725 28.8251 564.984 28.8251C562.952 28.8251 561.888 27.7109 561.501 27.1966C561.114 26.6823 560.92 26.2538 560.92 26.2538H560.824C560.824 26.4252 560.92 26.6823 561.017 26.9395C561.307 27.6252 561.501 27.7966 561.598 27.968C561.694 28.0538 561.791 28.3109 561.501 28.3966C561.307 28.4823 561.211 28.3109 561.114 28.2252C561.017 28.0538 560.63 27.6252 560.437 26.9395C560.146 26.1681 560.146 25.6538 560.05 25.2252H559.856C559.759 25.568 559.759 26.1681 559.759 26.8537C559.856 27.6252 560.05 28.1394 560.146 28.3109C560.146 28.3109 560.243 28.3966 560.243 28.4823C560.243 28.7395 560.05 28.8251 559.856 28.8251C559.663 28.8251 559.469 28.6537 559.372 28.4823C558.502 27.1966 559.566 24.6252 559.856 23.8538C560.34 22.7395 560.437 21.6252 560.437 21.6252C560.437 21.6252 561.017 20.7681 561.307 20.168C561.694 19.3967 561.985 18.7109 562.275 18.4538C562.662 18.1109 563.339 17.2538 564.016 16.1395C564.113 15.9681 564.693 14.7681 564.79 14.511C564.887 14.3395 564.984 14.0824 565.08 13.911C565.371 12.8824 565.661 11.6824 565.661 11.511C565.661 11.2539 565.177 11.0824 565.177 11.0824C565.177 11.0824 564.693 10.911 564.403 10.911C564.21 10.911 564.016 11.0824 563.823 11.1681C563.532 11.2538 563.436 11.1681 563.436 11.1681C563.436 11.1681 563.049 10.9967 562.855 11.0824C562.662 11.0824 562.468 11.3396 562.275 11.3396C561.985 11.4253 561.888 11.4253 561.888 11.4253C561.888 11.4253 561.598 11.3396 561.404 11.3396C561.211 11.4253 561.017 11.511 560.63 11.7681C557.921 10.911 555.116 10.4824 552.213 10.4824C538.959 10.4824 528.124 19.9109 527.931 31.6537C527.931 31.7394 527.931 32.2537 527.931 32.2537H576.399C576.399 32.2537 576.399 31.7394 576.399 31.6537ZM545.538 27.368C545.441 27.368 545.538 27.2824 545.441 27.2824C546.119 25.3966 547.666 21.5395 550.182 18.6252C550.472 18.7109 550.665 18.8824 550.956 18.9681C549.118 20.7681 546.699 24.2823 545.538 27.368ZM546.989 27.968C547.473 26.2538 548.731 22.6538 551.439 19.2252C551.73 19.3967 551.923 19.4824 552.213 19.6538C550.375 21.7966 548.15 25.2252 547.183 28.0538C547.086 28.0538 547.086 27.968 546.989 27.968ZM548.924 28.3966C548.827 28.3966 548.924 28.3966 548.827 28.3966C549.214 27.0252 550.278 23.4252 552.794 19.9109C553.084 20.0824 553.278 20.168 553.471 20.3395C551.73 22.6538 549.795 25.8252 548.924 28.3966ZM550.762 28.3966C550.665 28.3966 550.665 28.3966 550.665 28.3966C551.052 27.1109 551.923 23.9395 554.052 20.7681C554.342 20.9395 554.632 21.111 554.729 21.2824C553.181 23.3395 551.536 26.0823 550.762 28.3966ZM557.147 22.6538C556.664 22.6538 555.986 22.4823 555.793 22.1395C555.89 22.7395 556.664 23.2537 557.341 23.2537C557.147 23.2537 557.051 23.3395 556.857 23.3395C555.986 23.3395 555.212 22.6538 555.212 21.8824C555.212 21.7966 555.212 21.6252 555.212 21.5395C555.89 22.0538 557.341 22.7395 558.211 21.7109V21.7966C558.115 22.2252 557.631 22.6538 557.147 22.6538ZM559.856 19.3109C559.856 19.5681 559.663 19.6538 559.469 19.7395C559.372 19.8253 559.082 19.9109 559.082 19.9966H558.985C558.985 19.9966 558.889 19.9109 558.792 19.9109C558.792 19.8253 558.792 19.8253 558.792 19.8253V19.7395V19.5681C558.792 19.5681 558.695 19.3967 558.792 19.2252C558.792 18.9681 559.082 18.7967 559.082 18.7967H559.179C559.179 18.7967 559.082 18.9681 558.985 19.1395C558.985 19.2252 558.889 19.4824 558.985 19.6538V19.8253L559.082 19.9109L559.179 19.8253C559.372 19.7395 559.372 19.6538 559.372 19.6538C559.372 19.6538 559.179 19.4824 559.276 19.3109C559.372 19.1395 559.663 19.1395 559.663 19.1395C559.759 18.8824 559.663 18.7109 559.663 18.7109L559.856 18.7967C559.759 18.7109 559.856 18.9681 559.856 19.3109ZM561.114 12.0253C561.404 11.9396 561.501 11.7681 561.791 11.6824C562.081 11.5967 562.275 11.6824 562.468 11.6824C562.662 11.6824 562.952 11.4253 563.145 11.4253C563.339 11.4253 563.436 11.511 563.629 11.511C563.726 11.6824 564.306 11.3396 564.403 11.3396C564.5 11.3396 564.887 11.3396 564.79 11.6824C564.693 11.9396 564.5 12.711 564.113 13.7395C564.016 13.9967 563.823 14.3395 563.629 14.6824C563.436 15.0253 563.242 15.4538 562.952 15.7967C561.888 17.3395 560.824 16.9967 558.792 17.8538C557.147 18.5395 556.47 18.9681 556.277 19.2252C556.083 19.0538 555.986 19.0538 555.793 18.9681C556.083 18.7109 556.76 18.2824 558.115 17.6824C559.566 16.9967 561.985 16.1395 562.468 15.3681C562.468 15.2824 562.468 15.2824 562.468 15.1967C561.888 15.5395 561.404 15.711 561.211 15.8824C558.889 16.911 558.018 17.1681 556.954 17.6824C556.47 17.9395 555.696 18.2824 555.212 18.6252C555.116 18.5395 554.922 18.4538 554.825 18.3681C555.309 18.0252 555.986 17.6824 556.664 17.3395C557.728 16.911 558.598 16.4824 561.114 15.1967C561.307 15.111 562.565 14.4253 563.532 13.7395C563.532 13.6538 563.532 13.5681 563.629 13.4824C562.759 13.911 559.953 15.2824 559.372 15.5395C557.051 16.5681 557.147 16.4824 556.083 16.9967C555.406 17.3395 554.729 17.6824 554.245 18.0252C554.148 17.9395 553.955 17.8538 553.858 17.7681C554.439 17.4252 554.922 17.0824 555.696 16.7395C556.76 16.2252 556.857 16.1395 559.276 15.111C560.437 14.5967 562.565 13.311 563.726 12.711C563.726 12.6253 563.726 12.6253 563.726 12.5396C562.565 13.1396 559.179 14.6824 558.695 14.9395C556.373 15.8824 556.083 15.9681 555.019 16.4824C554.439 16.7395 553.858 17.0824 553.374 17.3395C553.278 17.2538 553.181 17.1681 553.084 17.0824C553.471 16.8252 554.148 16.3967 555.019 15.9681C556.083 15.4538 556.277 15.3681 558.598 14.3395C558.889 14.2538 560.05 13.6538 561.114 13.0538C561.404 12.8824 561.791 12.711 562.081 12.5396C562.372 12.3681 562.565 12.1967 562.759 12.111L562.662 12.0253C562.178 12.1967 561.501 12.5395 561.307 12.6253C560.05 13.2253 558.502 13.911 558.018 14.0824C555.696 15.111 555.406 15.1967 554.342 15.711C553.761 15.9681 553.084 16.311 552.697 16.6538C552.6 16.5681 552.504 16.4824 552.407 16.3967C552.891 16.0538 553.568 15.6253 554.342 15.2824C555.406 14.7681 555.599 14.6824 557.921 13.6538C558.308 13.4824 558.695 13.311 558.985 13.1396C559.082 13.1396 560.146 12.6253 561.114 12.0253ZM553.181 11.511C555.406 11.511 557.631 11.7681 559.663 12.3681C559.276 12.6253 558.695 12.8824 557.921 13.2253C555.212 14.4253 554.922 14.511 553.761 15.0253C552.987 15.3681 552.407 15.711 551.923 16.0538C551.923 16.0538 551.439 15.4538 551.149 15.2824C550.859 15.111 550.182 14.9395 549.988 14.8538C549.601 14.6824 549.505 14.511 548.924 14.3395C548.44 14.1681 548.053 14.2538 547.763 14.2538C547.473 14.1681 547.183 14.0824 546.699 14.0824C546.409 14.0824 546.022 14.2538 545.732 14.2538C545.345 14.2538 545.054 14.1681 544.764 14.1681C544.474 14.2538 544.087 14.511 543.7 14.511C543.41 14.5967 543.023 14.511 542.829 14.511C542.636 14.5967 542.152 14.9395 541.862 15.0253C541.668 15.111 541.088 15.111 541.185 15.5395C541.185 15.8824 542.055 15.9681 542.055 15.9681C542.055 15.9681 545.828 16.3967 549.505 18.1109C549.021 18.7109 548.44 19.3109 548.053 19.9966C547.763 19.9109 547.376 19.8253 547.183 19.8253C546.796 19.8253 546.409 19.9966 546.119 19.9109C545.538 19.9109 545.538 19.8253 544.861 19.9109C544.377 19.9966 544.377 20.0824 543.99 20.168C543.7 20.2538 543.41 20.168 542.926 20.2538C542.733 20.3395 542.346 20.6823 542.055 20.7681C541.862 20.8538 541.475 20.8538 541.185 21.0252C540.991 21.1966 540.991 21.3681 540.507 21.5395C540.217 21.7109 540.024 21.6252 539.733 21.8824C539.54 22.2252 539.54 22.4823 539.056 22.8252C538.476 23.2537 538.476 23.5966 538.572 23.6824C538.766 24.0252 539.637 23.6824 539.637 23.6824C539.637 23.6824 542.733 22.7395 546.409 22.5681C545.441 24.2823 544.667 25.9109 544.184 27.0252C544.087 27.2824 543.99 27.5395 543.893 27.7109C543.797 27.7109 543.797 27.7109 543.797 27.7109C543.603 27.5395 543.603 27.2824 543.7 26.6823C543.797 26.0823 544.377 24.8823 544.571 24.6252H544.377C544.184 24.8823 543.603 25.8252 543.506 25.9967C543.313 26.3395 543.216 26.4252 542.829 27.1966C542.733 27.368 542.539 27.7109 542.249 27.7109C542.055 27.7109 541.862 27.6252 541.862 27.4538C541.862 27.368 541.959 27.1966 542.055 27.1966C542.539 26.5109 542.926 25.8252 543.023 25.4824H542.829C542.829 25.4824 541.475 28.2252 538.572 28.2252C537.605 28.2252 536.541 27.7966 536.541 27.7966C536.541 27.7966 535.186 28.3109 533.348 28.3109C531.897 28.3109 531.026 28.0538 530.639 27.968C532.671 18.7109 541.668 11.511 553.181 11.511Z" fill="#FAFAFA"/>
<path d="M620.321 31.7401L620.127 31.6545C618.966 31.1402 618.579 29.683 617.999 28.3974L612.097 14.5117H606.486V14.9403L606.776 15.026C606.776 15.026 607.067 15.1117 607.163 15.1974C607.454 15.3689 607.744 15.7117 607.357 16.5689C607.357 16.9974 607.163 17.3403 607.163 17.3403L602.52 28.3974C602.036 29.5974 601.649 31.1402 600.488 31.6545L600.101 31.8259V32.2544H606.389V31.8259L605.906 31.6545C605.325 31.483 605.228 30.9687 605.809 29.5116L606.486 27.5402H613.161C613.355 27.9688 613.548 28.5688 613.839 29.4259C614.129 30.283 614.613 31.3974 613.935 31.7401L613.548 31.9116V32.3402H620.321V31.7401ZM612.194 24.6259H607.744L609.969 19.1403L612.194 24.6259Z" fill="#FAFAFA"/>
<path d="M661.148 14.5117V14.9403L661.632 15.1117C662.406 15.3689 662.309 16.9974 662.309 18.026V28.7402C662.309 29.5974 662.309 31.3974 661.632 31.6545L661.148 31.8259V32.2544H667.532V31.8259L667.049 31.6545C666.275 31.3974 666.371 29.5974 666.371 28.7402V18.026C666.371 16.5689 666.565 15.2831 667.049 15.1117L667.532 14.9403V14.5117H661.148Z" fill="#FAFAFA"/>
<path d="M637.153 14.5117V14.9403L637.637 15.1117C638.411 15.3689 638.314 16.9974 638.314 18.026V28.7402C638.314 29.5974 638.314 31.3974 637.637 31.6545L637.153 31.8259V32.2544H643.538V31.8259L643.054 31.6545C642.28 31.3974 642.377 29.5974 642.377 28.7402V18.026C642.377 16.5689 642.571 15.2831 643.054 15.1117L643.538 14.9403V14.5117H637.153Z" fill="#FAFAFA"/>
<path d="M601.263 12.9685C599.812 11.6828 597.587 10.9971 595.169 10.9971H586.945V11.4256L587.332 11.5114C588.397 11.9399 588.3 14.2542 588.3 15.9685V27.1969V27.6256C588.3 28.9113 588.3 31.2256 587.332 31.5684L586.945 31.7399V32.1684H594.491V31.7399L594.201 31.5684C592.847 30.7969 592.847 29.0827 592.847 27.2827V23.5113L593.621 23.7685C593.621 23.7685 594.878 24.197 596.039 24.197C599.522 24.197 603.295 22.0541 603.295 17.4256C603.295 15.7113 602.618 14.1685 601.263 12.9685ZM593.911 22.5684L593.234 22.6541H592.847V14.6828C593.33 14.5971 593.911 14.5971 594.685 14.5971C596.233 14.5971 597.49 14.9399 598.168 15.6256C598.845 16.2256 599.135 16.997 599.135 18.1113C599.135 20.7684 596.426 22.397 593.911 22.5684Z" fill="#FAFAFA"/>
<path d="M704.101 10.9974H700.715H691.041V11.5117L691.621 11.6831C692.492 12.0259 692.492 13.9974 692.492 15.1116V27.9687C692.492 28.9972 692.492 31.1401 691.621 31.483L691.041 31.6544V32.1687H698.297V31.6544L697.716 31.483C696.845 31.1401 696.845 29.083 696.845 27.9687V23.7687H701.102C701.102 23.7687 702.94 23.5973 703.231 24.283L703.327 24.5402L703.811 24.6259L704.101 18.9688H703.424L703.327 19.3116C703.134 19.7402 701.489 19.9116 701.006 19.8259H696.749C696.749 17.9402 696.749 15.6259 696.749 14.5974H701.973C703.231 14.5974 703.908 14.8545 704.101 15.4545L704.197 15.7973H704.778L706.132 10.7402C706.326 10.9117 704.584 10.9974 704.101 10.9974Z" fill="#FAFAFA"/>
<path d="M635.025 27.4543L634.928 27.5401C634.734 27.7115 634.541 27.7972 634.541 27.7972C633.38 28.4829 631.445 29.2543 629.511 29.2543C627.963 29.2543 626.705 28.8258 625.641 27.9686C624.383 26.8544 623.706 25.0544 623.706 22.9973C623.706 19.7402 625.834 17.5116 628.93 17.5116C630.381 17.5116 631.832 17.9401 633.283 18.7973L633.67 19.0544L634.444 19.483V18.7116V15.1973V14.8544L633.864 14.7687C631.929 14.3401 630.381 14.083 629.027 14.083C626.318 14.083 623.996 14.9401 622.255 16.483C620.417 18.1116 619.353 20.5972 619.353 23.3401C619.353 26.1686 620.32 28.4829 622.158 30.1115C623.996 31.7401 626.705 32.5972 629.801 32.5972C631.349 32.5972 632.799 32.34 633.96 31.7401H634.057L634.251 31.6543L634.347 31.4829L635.702 27.3687H635.025V27.4543Z" fill="#FAFAFA"/>
<path d="M684.462 27.4543L683.882 27.7972C682.721 28.4829 680.786 29.2543 678.851 29.2543C677.303 29.2543 676.045 28.8258 674.981 27.9686C673.723 26.8544 673.046 25.0544 673.046 22.9973C673.046 19.7402 675.174 17.5116 678.27 17.5116C679.722 17.5116 681.173 17.9401 682.624 18.7973L683.785 19.483V15.1973V14.8544L683.301 14.7687C681.366 14.3401 679.818 14.083 678.464 14.083C675.755 14.083 673.433 14.9401 671.691 16.483C669.853 18.1116 668.789 20.5972 668.789 23.3401C668.789 26.1686 669.757 28.4829 671.595 30.1115C673.433 31.7401 676.142 32.5972 679.238 32.5972C680.786 32.5972 682.237 32.34 683.398 31.7401L683.688 31.6543L685.139 27.3687H684.462V27.4543Z" fill="#FAFAFA"/>
<path d="M657.759 14.5113H652.439H646.054V14.9398L646.537 15.1113C647.311 15.3684 647.215 16.997 647.215 18.0255V28.7397C647.215 29.5969 647.215 31.3969 646.537 31.6541L646.054 31.8254V32.254H652.439V31.8254L651.955 31.6541C651.181 31.3969 651.278 29.5969 651.278 28.7397V25.2255H654.761C654.761 25.2255 656.308 25.1398 656.501 25.654L656.598 25.9112L656.985 25.9969L657.275 21.2826H656.792L656.695 21.5398C656.598 21.8827 655.148 22.0541 654.761 21.9684H651.181C651.181 20.4256 651.181 18.4541 651.181 17.597H655.921C656.985 17.597 657.566 17.8541 657.759 18.2827L657.856 18.5398H658.34L659.501 14.3398C659.694 14.3398 658.146 14.5113 657.759 14.5113Z" fill="#FAFAFA"/>
<path d="M739.799 14.5115V14.9401L740.186 15.1115C741.057 15.6258 741.153 16.3972 741.153 17.8543V25.9971C738.444 22.5686 732.447 14.4258 732.447 14.4258H727.803V14.8544L728.19 15.0258C729.061 15.5401 729.158 16.3972 729.158 17.8543V28.4829C729.158 29.94 729.158 31.0543 728.19 31.5685L727.9 31.74V32.1685H733.802V31.74L733.415 31.5685C732.544 31.3971 732.544 29.94 732.544 28.4829V20.7686L738.348 28.14C739.412 29.5115 741.153 31.4828 742.992 31.9971C744.443 32.4257 744.733 32.3399 744.733 32.3399V17.94C744.733 16.4829 744.733 15.6258 745.7 15.1115L746.087 14.9401V14.5115H739.799Z" fill="#FAFAFA"/>
<path d="M763.597 17.0829C761.662 15.3686 758.76 14.4258 755.181 14.4258H747.925V14.8544L748.312 14.9401L748.505 15.0258C749.376 15.2829 749.183 17.0829 749.183 18.0258V28.74C749.183 30.0257 749.183 31.14 748.118 31.74L747.828 31.9114V32.2543H754.987C761.565 32.2543 766.209 28.5685 766.209 23.2543C766.209 20.7686 765.338 18.6258 763.597 17.0829ZM760.211 27.7971C758.856 28.9114 757.019 29.5971 754.697 29.5971C754.213 29.5971 753.923 29.5115 753.343 29.4257V17.4258C754.117 17.2543 754.504 17.1686 755.181 17.1686C757.406 17.1686 759.05 17.6829 760.211 18.7115C761.372 19.7401 761.952 21.4543 761.952 23.5114C761.952 25.2257 761.275 26.7685 760.211 27.7971Z" fill="#FAFAFA"/>
<path d="M724.223 28.9973V17.8546C724.223 16.5689 724.223 15.3689 725.191 15.1117L725.578 15.026L725.287 14.5117H718.708V14.9403L719.095 15.026C720.063 15.3689 719.966 16.7403 719.966 17.6831V26.1688C719.966 27.0259 719.966 27.4545 719.482 28.0545C718.708 28.9973 717.257 29.5974 715.709 29.5974C714.453 29.5974 713.582 29.3402 712.905 28.7402C712.034 28.0545 711.647 26.7688 711.647 25.1402V17.5974C711.647 16.5689 711.647 15.1974 712.518 14.9403L712.905 14.8546V14.5117H706.132V14.9403L706.519 15.026C707.39 15.2831 707.487 16.9117 707.39 18.1974V25.4831C707.39 27.2831 707.39 29.0831 709.035 30.7116C710.389 31.9973 712.421 32.6831 714.743 32.6831C716.387 32.6831 718.418 31.9116 719.869 30.8831V32.2544H725.384V31.8259L724.997 31.7401C724.223 31.3974 724.126 30.283 724.223 28.9973Z" fill="#FAFAFA"/>
<path d="M780.723 26.8536C780.723 28.225 780.046 29.5965 778.788 30.6251C777.337 31.9108 775.305 32.5964 773.08 32.5964C771.339 32.5964 769.694 32.3393 768.146 31.825H768.049L767.856 31.7393V31.5679V31.4821L767.082 28.3108L766.985 27.7965L766.888 27.3679H767.372L768.049 28.0536C769.5 29.2536 771.532 29.7679 773.37 29.7679C774.628 29.7679 776.466 28.9965 776.466 27.7107C776.466 26.2536 774.918 25.5679 772.887 24.7108C770.468 23.6822 767.565 22.3965 767.565 19.1394C767.565 15.4537 771.435 14.168 774.725 14.168C776.176 14.168 777.53 14.3394 778.788 14.768H778.885L779.175 14.8537V15.1108V15.1965V17.4251V18.1965V18.7108L778.498 18.2822L777.821 17.9394C777.24 17.5965 775.789 17.0822 774.531 17.0822C774.047 17.0822 772.983 17.168 772.306 17.768C772.016 18.0251 771.822 18.3679 771.822 18.8822C771.822 20.168 773.564 20.9394 775.402 21.7108C777.724 22.7393 780.723 24.025 780.723 26.8536Z" fill="#FAFAFA"/>
</g>
</g>
<g clip-path="url(#clip9_1_1868)">
<g clip-path="url(#clip10_1_1868)">
<path d="M915.727 24.2149C915.727 24.2149 915.442 23.1105 915.442 22.2919V9.48532H920.296V34.1524L904.756 20.555C903.925 19.8085 903.433 18.9749 903.433 18.9749C903.433 18.9749 903.679 19.894 903.679 20.6893L903.675 33.5957H898.818V9.02539L914.215 22.3497C915.041 23.0887 915.727 24.2149 915.727 24.2149Z" fill="#FAFAFA"/>
<path d="M959.675 9.4873C967.367 9.4873 969.337 12.6925 969.337 17.2993C969.337 20.638 967.01 23.9093 962.317 24.2964L961.803 24.3227C961.803 24.3227 962.257 24.4075 962.731 24.8899L971.247 33.5947H964.667L952.778 20.8391H958.698C964 20.8391 964.154 17.8867 964.19 17.1425C964.29 15.2262 963.71 13.6942 959.666 13.6942H952.897V33.5947H947.854V9.4873H959.675Z" fill="#FAFAFA"/>
<path d="M922.48 21.8852C922.48 11.7856 930.48 9.13184 937.204 9.13184C939.897 9.13184 942.281 9.38693 944.79 9.9489L944.797 15.0703C943.355 14.6014 940.457 13.572 937.205 13.572C930.83 13.572 927.734 16.189 927.734 21.8844C927.734 26.5497 931.071 29.5216 937.205 29.5216C940.457 29.5216 943.713 28.7038 945.29 28.0893L945.281 33.0577C942.774 33.6166 939.897 33.9618 937.205 33.9618C930.023 33.9625 922.48 30.2734 922.48 21.8852Z" fill="#FAFAFA"/>
<path d="M867.858 10.1074L872.592 14.8185C872.463 14.8792 872.314 14.9543 872.138 15.0473C871.864 15.1981 871.538 15.3999 871.146 15.6865C870.366 16.253 869.349 17.1578 868.048 18.6412L858.797 28.9868C857.211 30.7575 855.6 32.1605 854.102 32.9026L849.366 28.19C849.495 28.1263 849.644 28.0557 849.817 27.9582C850.091 27.8104 850.417 27.6056 850.808 27.3235C851.587 26.7517 852.606 25.8521 853.908 24.3666L863.158 14.0382C864.744 12.2697 866.358 10.8495 867.858 10.1074Z" fill="#FAFAFA"/>
<path d="M849.534 35.1153C851.627 35.1153 853.55 34.6771 854.855 33.9621C855.452 33.6335 856.303 33.0677 857.035 32.4645C857.764 31.8635 858.798 30.9272 859.672 29.9451L868.933 19.6287C871.269 17.0289 872.672 16.2261 873.524 15.9102L878.275 20.6648C877.283 21.785 865.461 35.0905 865.461 35.0905C864.655 36.0104 863.806 36.8979 863.228 37.4569C862.674 37.9971 861.725 38.8022 861.235 39.1811C858.455 41.3336 854.741 43.0795 849.74 43.0795C838.407 43.0795 829.243 33.3326 829.243 22.1091C829.243 8.18606 839.537 0.106997 848.913 0.106997C851.787 0.0169628 854.093 0.527907 855.917 1.18215C857.602 1.78763 858.874 2.51991 859.797 3.0181C858.706 3.75713 857.65 4.76476 855.91 6.72901L854.008 8.88608C853.571 8.70826 851.631 7.99324 849.141 8.07352C843.125 8.26109 836.545 13.414 836.782 21.8675C837.003 29.7717 843.169 35.1153 849.534 35.1153Z" fill="#FAFAFA"/>
<path d="M867.044 9.11746C866.445 9.44833 865.596 10.0125 864.86 10.6158C864.133 11.2168 863.1 12.1531 862.223 13.133L852.964 23.4516C850.628 26.0514 849.224 26.8512 848.373 27.1678L843.623 22.4177C844.617 21.2946 856.437 7.99128 856.437 7.99128C857.245 7.07143 858.092 6.18384 858.669 5.62263C859.224 5.08243 860.172 4.28037 860.667 3.89848C863.442 1.74591 867.161 0 872.163 0C883.494 0 892.654 9.7477 892.654 20.9682C892.654 34.8957 882.362 42.9703 872.984 42.9703C870.112 43.0626 867.804 42.5516 865.983 41.8921C864.294 41.2889 863.017 40.5521 862.096 40.0562C863.249 39.2339 864.236 38.332 865.99 36.352L867.888 34.195C868.326 34.3698 870.266 35.0856 872.758 35.0075C878.772 34.8177 885.354 29.6595 885.117 21.2083C884.894 13.3078 878.724 7.96202 872.362 7.96202C870.266 7.96202 868.351 8.40244 867.044 9.11746Z" fill="#FAFAFA"/>
</g>
</g>
<g clip-path="url(#clip11_1_1868)">
<g clip-path="url(#clip12_1_1868)">
<path fill-rule="evenodd" clip-rule="evenodd" d="M1037.62 29.1656L1043.55 35.2248L1038.61 40.4938C1037 42.2024 1034.4 42.2024 1032.8 40.4938L1020.45 27.3451C1018.85 25.636 1018.85 22.8659 1020.45 21.1574C1022.06 19.4488 1024.66 19.4488 1026.26 21.1574L1035.7 31.2123L1037.62 29.1656ZM1039.17 27.5238L1044.42 21.9296L1050.23 28.1173L1045.39 33.2687L1039.17 27.5238Z" fill="#FAFAFA"/>
<path fill-rule="evenodd" clip-rule="evenodd" d="M1062.93 33.153L1056.74 27.3702L1071.29 11.8778C1072.89 10.1692 1075.49 10.1692 1077.1 11.8778C1078.7 13.5863 1078.7 16.3564 1077.1 18.0655L1062.93 33.153ZM1061.01 35.2033L1056.04 40.4941C1054.43 42.2027 1051.83 42.2027 1050.23 40.4941L1029.17 18.0633C1027.56 16.3542 1027.56 13.5841 1029.17 11.8756C1030.77 10.1665 1033.37 10.1665 1034.98 11.8756L1053.13 31.2126L1055.17 29.0377L1061.01 35.2033Z" fill="#FAFAFA"/>
<path fill-rule="evenodd" clip-rule="evenodd" d="M1054.01 25.9513L1059.79 19.7348L1070.56 31.2124L1080 21.1597C1081.61 19.4512 1084.21 19.4512 1085.81 21.1597C1087.42 22.8688 1087.42 25.6389 1085.81 27.3474L1073.47 40.494C1071.86 42.2025 1069.26 42.2025 1067.66 40.494L1054.01 25.9513ZM1051.61 23.4001L1037.88 8.7805C1036.28 7.07196 1036.28 4.30187 1037.88 2.59334C1039.49 0.884252 1042.09 0.884252 1043.69 2.59334L1057.43 17.2281L1051.61 23.4001Z" fill="#FAFAFA"/>
<path fill-rule="evenodd" clip-rule="evenodd" d="M1068.38 2.59586C1066.78 0.887319 1064.17 0.887319 1062.57 2.59586L1044.42 21.9307L1050.23 28.1184L1068.38 8.78356C1069.98 7.07448 1069.98 4.30439 1068.38 2.59586Z" fill="#FAFAFA"/>
<path fill-rule="evenodd" clip-rule="evenodd" d="M1108.28 5.61731H1103.23V37.2227H1121.74V32.4497H1108.28V5.61731ZM1132.67 15.1204C1135.74 15.1204 1137.8 16.4535 1138.94 18.0875L1139.18 15.5504H1143.54V37.2227H1139.18L1138.94 34.6857C1137.8 36.3197 1135.74 37.6527 1132.67 37.6527C1127.13 37.6527 1123.38 32.8797 1123.38 26.3866C1123.38 19.8505 1127.13 15.1204 1132.67 15.1204ZM1133.72 19.6785C1130.57 19.6785 1128.31 22.3015 1128.31 26.3866C1128.31 30.4716 1130.57 33.0947 1133.72 33.0947C1136.15 33.0947 1137.6 31.7187 1138.69 29.8696V22.9035C1137.6 21.0545 1136.15 19.6785 1133.72 19.6785ZM1155.77 8.28335H1150.92V15.5504H1147.08V19.9365H1150.92V29.5686C1150.92 34.8147 1153.87 37.6527 1158.52 37.6527C1160.54 37.6527 1162.03 37.0507 1163.04 36.3627L1161.75 32.3207C1161.14 32.7077 1160.26 33.0087 1158.96 33.0087C1157.06 33.0087 1155.77 31.7187 1155.77 29.5256V19.9365H1161.91V15.5504H1155.77V8.28335ZM1172.48 8.28335H1167.63V15.5504H1163.79V19.9365H1167.63V29.5686C1167.63 34.8147 1170.58 37.6527 1175.23 37.6527C1177.25 37.6527 1178.75 37.0507 1179.76 36.3627L1178.46 32.3207C1177.86 32.7077 1176.97 33.0087 1175.67 33.0087C1173.77 33.0087 1172.48 31.7187 1172.48 29.5256V19.9365H1178.62V15.5504H1172.48V8.28335ZM1187.86 15.5504H1183.01V37.2227H1187.86V15.5504ZM1185.44 5.44531C1183.74 5.44531 1182.44 6.77833 1182.44 8.62735C1182.44 10.4764 1183.74 11.8094 1185.44 11.8094C1187.17 11.8094 1188.47 10.4764 1188.47 8.62735C1188.47 6.77833 1187.17 5.44531 1185.44 5.44531ZM1202.51 15.1204C1196.25 15.1204 1192.08 19.8505 1192.08 26.3866C1192.08 32.8797 1196.29 37.6527 1202.55 37.6527C1206.23 37.6527 1209.02 35.8897 1210.84 32.8797L1207.36 29.9986C1206.39 31.7187 1204.82 33.1377 1202.59 33.1377C1199 33.1377 1197.02 30.1706 1197.02 26.3866C1197.02 22.5595 1198.91 19.6355 1202.55 19.6355C1204.82 19.6355 1206.31 21.0115 1207.24 22.7315L1210.76 19.8935C1208.94 16.8835 1206.23 15.1204 1202.51 15.1204ZM1222.7 15.1204C1228.96 15.1204 1232.04 20.1085 1232.04 26.1716V27.9776H1217.65C1217.77 31.4176 1219.71 33.3097 1223.1 33.3097C1225.49 33.3097 1227.23 32.1917 1228.16 30.8156L1231.51 33.7397C1229.49 36.3197 1226.82 37.6527 1223.06 37.6527C1216.76 37.6527 1212.72 32.9227 1212.72 26.4296C1212.72 19.8935 1216.84 15.1204 1222.7 15.1204ZM1222.62 19.2485C1219.75 19.2485 1217.81 21.2695 1217.65 24.2796H1227.27C1227.15 21.3125 1225.53 19.2485 1222.62 19.2485Z" fill="#FAFAFA"/>
</g>
</g>
<g clip-path="url(#clip13_1_1868)">
<path d="M1289.97 12.8513H1280.25V3.78906H1310.46V12.8513H1300.74V39.2901H1289.97V12.8513ZM1312.13 3.78906H1341.5V12.8513H1322.89V17.2226H1341.5V25.7501H1322.89V30.2279H1341.5V39.2901H1312.13V3.78906ZM1343.27 3.78906H1360.94C1372.54 3.78906 1376.61 12.5315 1376.61 21.487C1376.61 32.3609 1370.97 39.2901 1358.84 39.2901H1343.27V3.78906ZM1354.04 30.2279H1358.22C1364.91 30.2279 1365.85 24.6852 1365.85 21.3806C1365.85 19.1408 1365.12 12.958 1357.38 12.958H1353.93L1354.04 30.2279Z" fill="#FAFAFA"/>
</g>
</g>
<defs>
<clipPath id="clip0_1_1868">
<rect width="1400" height="43.0798" fill="white"/>
</clipPath>
<clipPath id="clip1_1_1868">
<rect width="110.053" height="35.501" fill="white" transform="translate(0 3.78906)"/>
</clipPath>
<clipPath id="clip2_1_1868">
<rect width="110.053" height="35.501" fill="white" transform="translate(0 3.78906)"/>
</clipPath>
<clipPath id="clip3_1_1868">
<rect width="154.429" height="30.1758" fill="white" transform="translate(158.053 6.45215)"/>
</clipPath>
<clipPath id="clip4_1_1868">
<rect width="154.429" height="30.1758" fill="white" transform="translate(158.053 6.45215)"/>
</clipPath>
<clipPath id="clip5_1_1868">
<rect width="118.928" height="37.276" fill="white" transform="translate(360.482 2.90234)"/>
</clipPath>
<clipPath id="clip6_1_1868">
<rect width="118.928" height="37.276" fill="white" transform="translate(360.482 2.90234)"/>
</clipPath>
<clipPath id="clip7_1_1868">
<rect width="253.832" height="23.0756" fill="white" transform="translate(527.411 10.002)"/>
</clipPath>
<clipPath id="clip8_1_1868">
<rect width="253.832" height="23.0756" fill="white" transform="translate(527.411 10.002)"/>
</clipPath>
<clipPath id="clip9_1_1868">
<rect width="142.004" height="43.0798" fill="white" transform="translate(829.243)"/>
</clipPath>
<clipPath id="clip10_1_1868">
<rect width="142.004" height="43.0798" fill="white" transform="translate(829.243)"/>
</clipPath>
<clipPath id="clip11_1_1868">
<rect width="213.006" height="40.4711" fill="white" transform="translate(1019.25 1.30469)"/>
</clipPath>
<clipPath id="clip12_1_1868">
<rect width="213.006" height="40.4711" fill="white" transform="translate(1019.25 1.30469)"/>
</clipPath>
<clipPath id="clip13_1_1868">
<rect width="96.3598" height="35.501" fill="white" transform="translate(1280.25 3.78906)"/>
</clipPath>
</defs>
</svg>
