<svg width="46" height="44" viewBox="0 0 46 44" fill="none" xmlns="http://www.w3.org/2000/svg">
<path d="M35.2486 24.7871L28.6482 30.9054H22.0478L16.2724 36.259V30.9054H8.84695V7.96173H35.2486V24.7871Z" fill="#9146FF"/>
<path d="M12.3302 1.99042L10.3398 3.98085L6.85653 26.3732L17.3063 31.8469L18.7991 33.8374L28.7513 30.3541L39.6987 21.8948L40.1963 13.933L39.6987 2.48803L38.2059 1.99042H12.3302Z" fill="white"/>
<path d="M11.1262 0L2.87566 7.6479V35.1803H12.7763V42.8282L21.0268 35.1803H27.6272L42.4781 21.4141V0H11.1262ZM39.1779 19.8845L32.5775 26.0029H25.9771L20.2017 31.3564V26.0029H12.7763V3.05916H39.1779V19.8845Z" fill="black"/>
<path d="M34.2285 8.41272H30.9283V17.5902H34.2285V8.41272Z" fill="black"/>
<path d="M25.155 8.41272H21.8548V17.5902H25.155V8.41272Z" fill="black"/>
</svg>
