<svg width="11" height="19" viewBox="0 0 11 19" fill="none" xmlns="http://www.w3.org/2000/svg">
<path d="M5.42852 8.14285L5.42852 10.8571L5.42852 13.5714L8.14281 13.5714L8.14281 10.8571L10.8571 10.8571L10.8571 8.14285L8.14281 8.14285L8.14281 5.42857L5.42852 5.42856L5.42852 8.14285ZM2.71424 2.71428L5.42852 2.71428L5.42852 5.42856L2.71424 5.42856L2.71424 2.71428ZM2.71424 2.71428L-4.18589e-05 2.71428L-4.17402e-05 -4.7458e-07L2.71424 -3.55935e-07L2.71424 2.71428ZM2.71424 16.2857L5.42852 16.2857L5.42852 13.5714L2.71424 13.5714L2.71424 16.2857ZM2.71424 16.2857L-4.24521e-05 16.2857L-4.25708e-05 19L2.71424 19L2.71424 16.2857Z" fill="black"/>
</svg>
