<svg width="483" height="400" viewBox="0 0 483 400" fill="none" xmlns="http://www.w3.org/2000/svg">
<path opacity="0.434783" d="M1.47713 302.091C0.759899 308.207 3.67332 314.16 8.89572 317.356L9.40864 317.657L149.917 396.546C153.602 398.615 157.959 399.113 162.007 397.94L162.398 397.821L366.151 333.043C369.4 332.01 372.22 329.952 374.195 327.187L374.579 326.624L479.082 166.031C482.153 161.311 482.471 155.309 479.914 150.292L413.434 19.8178C410.957 14.957 406.149 11.7355 400.738 11.2757L400.212 11.24L208.864 1.3908C205.459 1.21551 202.094 2.14996 199.274 4.04431L198.717 4.43643L26.5474 131.199C23.1441 133.705 20.8959 137.47 20.2968 141.642L20.2435 142.048L1.47713 302.091Z" stroke="url(#paint0_linear_1_1378)" stroke-width="2.73838"/>
<defs>
<linearGradient id="paint0_linear_1_1378" x1="-1.21211" y1="313.265" x2="489.009" y2="63.4842" gradientUnits="userSpaceOnUse">
<stop stop-color="#FF1CF7"/>
<stop offset="1" stop-color="#00F0FF"/>
</linearGradient>
</defs>
</svg>
