<svg width="395" height="344" viewBox="0 0 395 344" fill="none" xmlns="http://www.w3.org/2000/svg">
<path opacity="0.681159" d="M8.07354 83.0621C3.46533 86.2979 0.945203 91.7369 1.42943 97.3194L1.48514 97.8599L18.025 234.038C18.5542 238.396 20.8756 242.329 24.4195 244.898L24.7665 245.142L163.136 339.874C166.329 342.06 170.211 342.992 174.041 342.501L174.411 342.449L327.23 319.168C332.538 318.359 337.07 314.904 339.253 309.999L391.734 192.124C393.85 187.373 393.481 181.894 390.773 177.478L390.504 177.054L305.549 47.9091C303.422 44.676 300.183 42.3418 296.453 41.3449L296.09 41.253L133.104 1.81244C128.837 0.779992 124.34 1.57537 120.692 3.99352L120.341 4.23235L8.07354 83.0621Z" stroke="url(#paint0_linear_1_1395)" stroke-width="2.73838"/>
<defs>
<linearGradient id="paint0_linear_1_1395" x1="-1.11187" y1="87.838" x2="400.422" y2="266.613" gradientUnits="userSpaceOnUse">
<stop stop-color="#FF1CF7"/>
<stop offset="1" stop-color="#00F0FF"/>
</linearGradient>
</defs>
</svg>
