<svg width="355" height="341" viewBox="0 0 355 341" fill="none" xmlns="http://www.w3.org/2000/svg">
<path opacity="0.753623" d="M31.9998 49.2577C26.9186 51.2148 23.2189 55.649 22.1877 60.9706L22.096 61.4878L1.56759 190.164C0.867117 194.555 2.05422 199.03 4.82213 202.493L5.09478 202.824L104.556 320.547C107.141 323.607 110.79 325.565 114.759 326.032L115.144 326.072L258.343 339.357C263.592 339.844 268.736 337.675 272.054 333.579L350.114 237.182C353.328 233.214 354.415 227.944 353.055 223.043L352.915 222.57L310.148 85.2621C308.956 81.4378 306.356 78.2149 302.882 76.2411L302.543 76.0535L166.714 3.24162C162.795 1.14108 158.178 0.795689 154 2.2757L153.596 2.42451L31.9998 49.2577Z" stroke="url(#paint0_linear_1_1400)" stroke-width="2.73838"/>
<defs>
<linearGradient id="paint0_linear_1_1400" x1="22.2972" y1="51.5255" x2="338.686" y2="307.732" gradientUnits="userSpaceOnUse">
<stop stop-color="#FF1CF7"/>
<stop offset="1" stop-color="#00F0FF"/>
</linearGradient>
</defs>
</svg>
