<svg width="432" height="588" viewBox="0 0 432 588" fill="none" xmlns="http://www.w3.org/2000/svg">
<path opacity="0.217391" d="M113.084 580.231C116.961 585.481 123.655 587.782 129.909 586.073L130.513 585.894L304.87 530.729C308.792 529.488 312.067 526.764 314.005 523.148L314.189 522.795L428.728 295.475C430.171 292.611 430.703 289.38 430.262 286.214L430.161 285.582L390.183 64.4536C389.151 58.7442 385.065 54.0636 379.547 52.2706L225.267 2.1419C219.921 0.405163 214.07 1.65025 209.9 5.37749L209.501 5.74643L47.1821 161.145C44.8658 163.362 43.2851 166.23 42.6431 169.362L42.527 169.991L1.57572 421.221C0.913994 425.281 1.8663 429.433 4.21942 432.794L4.4515 433.117L113.084 580.231Z" stroke="url(#paint0_linear_1_1363)" stroke-width="2.73838"/>
<defs>
<linearGradient id="paint0_linear_1_1363" x1="119.254" y1="590.894" x2="319.637" y2="-25.8209" gradientUnits="userSpaceOnUse">
<stop stop-color="#FF1CF7"/>
<stop offset="1" stop-color="#00F0FF"/>
</linearGradient>
</defs>
</svg>
