<svg width="421" height="624" viewBox="0 0 421 624" fill="none" xmlns="http://www.w3.org/2000/svg">
<path opacity="0.144928" d="M180.827 618.634C185.974 622.815 193.166 623.314 198.824 619.943L199.368 619.605L358.689 515.776C362.106 513.549 364.523 510.086 365.439 506.121L365.522 505.736L419.309 243.111C419.941 240.024 419.632 236.823 418.43 233.921L418.179 233.344L319.36 19.2896C316.909 13.9799 311.718 10.4648 305.878 10.1586L138.606 1.39221C132.948 1.09569 127.581 3.8583 124.53 8.59946L124.243 9.06394L3.58971 211.616C1.9771 214.323 1.21604 217.448 1.39625 220.584L1.44463 221.211L27.4848 488.02C27.8811 492.08 29.8357 495.823 32.9288 498.467L33.2316 498.719L180.827 618.634Z" stroke="url(#paint0_linear_1_1358)" stroke-width="2.73838"/>
<defs>
<linearGradient id="paint0_linear_1_1358" x1="189.654" y1="627.571" x2="225.303" y2="-52.643" gradientUnits="userSpaceOnUse">
<stop stop-color="#FF1CF7"/>
<stop offset="1" stop-color="#00F0FF"/>
</linearGradient>
</defs>
</svg>
