<svg width="471" height="354" viewBox="0 0 471 354" fill="none" xmlns="http://www.w3.org/2000/svg">
<path opacity="0.521739" d="M2.71229 213.805C0.293436 219.288 1.19798 225.651 5.00591 230.236L5.38409 230.674L107.184 344.514C110.039 347.706 114.066 349.595 118.334 349.757L118.748 349.768L316.426 352.105C320.058 352.148 323.589 350.936 326.426 348.678L326.699 348.456L463.953 234.152C468.221 230.598 470.304 225.06 469.435 219.575L447.481 80.9619C446.639 75.6477 443.148 71.1425 438.242 68.9921L437.763 68.7918L271.904 2.49631C268.531 1.14814 264.8 1.00779 261.341 2.09189L261.006 2.20025L73.7254 65.5088C69.6682 66.8803 66.3494 69.8415 64.5237 73.7025L64.3518 74.0791L2.71229 213.805Z" stroke="url(#paint0_linear_1_1384)" stroke-width="2.73838"/>
<defs>
<linearGradient id="paint0_linear_1_1384" x1="-2.9993" y1="223.356" x2="502.182" y2="143.343" gradientUnits="userSpaceOnUse">
<stop stop-color="#FF1CF7"/>
<stop offset="1" stop-color="#00F0FF"/>
</linearGradient>
</defs>
</svg>
