<svg width="384" height="343" viewBox="0 0 384 343" fill="none" xmlns="http://www.w3.org/2000/svg">
<path opacity="0.695652" d="M8.72204 76.341C3.98855 79.3295 1.20571 84.5946 1.37862 90.163L1.4047 90.7021L10.2549 226.286C10.5417 230.68 12.6513 234.747 16.0623 237.511L16.3967 237.775L147.4 338.201C150.493 340.573 154.351 341.712 158.228 341.408L158.603 341.373L310.315 325.805C315.64 325.259 320.325 322.047 322.755 317.277L380.91 203.142C383.264 198.521 383.192 193.048 380.741 188.501L380.497 188.065L303.918 56.1768C301.961 52.8059 298.827 50.2837 295.126 49.0889L294.767 48.9773L136.518 2.02283C132.297 0.770391 127.751 1.34133 123.977 3.58405L123.614 3.80656L8.72204 76.341Z" stroke="url(#paint0_linear_1_1396)" stroke-width="2.73838"/>
<defs>
<linearGradient id="paint0_linear_1_1396" x1="-0.627163" y1="80.6224" x2="385.434" y2="277.33" gradientUnits="userSpaceOnUse">
<stop stop-color="#FF1CF7"/>
<stop offset="1" stop-color="#00F0FF"/>
</linearGradient>
</defs>
</svg>
