<svg width="427" height="643" viewBox="0 0 427 643" fill="none" xmlns="http://www.w3.org/2000/svg">
<path opacity="0.101449" d="M245.861 639.466C251.629 642.849 258.88 642.212 263.962 637.938L264.446 637.513L408.027 506.429C411.023 503.693 412.844 499.91 413.12 495.872L413.141 495.48L425.09 219.745C425.225 216.63 424.432 213.55 422.819 210.893L422.486 210.367L288.722 8.422C285.48 3.52788 279.786 0.84287 273.948 1.45648L104.324 19.2846C98.6681 19.8791 93.7875 23.4733 91.5304 28.6626L91.3205 29.1698L2.4667 254.513C1.32308 257.413 1.06822 260.584 1.7261 263.622L1.8693 264.227L70.8852 531.453C71.8998 535.381 74.3897 538.762 77.829 540.896L78.1645 541.099L245.861 639.466Z" stroke="url(#paint0_linear_1_1355)" stroke-width="2.73838"/>
<defs>
<linearGradient id="paint0_linear_1_1355" x1="256.051" y1="647.031" x2="182.853" y2="-49.4016" gradientUnits="userSpaceOnUse">
<stop stop-color="#FF1CF7"/>
<stop offset="1" stop-color="#00F0FF"/>
</linearGradient>
</defs>
</svg>
