<svg width="464" height="353" viewBox="0 0 464 353" fill="none" xmlns="http://www.w3.org/2000/svg">
<path opacity="0.536232" d="M3.04247 198.02C0.369947 203.345 0.937848 209.706 4.46852 214.466L4.81891 214.921L99.2433 332.999C101.922 336.349 105.846 338.456 110.105 338.846L110.519 338.88L304.938 351.569C308.579 351.807 312.186 350.773 315.145 348.65L315.428 348.441L456.345 242.491C460.769 239.165 463.122 233.761 462.544 228.256L447.992 89.8111C447.432 84.4782 444.2 79.8092 439.435 77.4009L438.969 77.1748L279.104 2.83818C275.795 1.29969 272.059 0.959002 268.532 1.86792L268.192 1.95965L80.6603 54.7939C76.5321 55.9569 73.062 58.7513 71.0439 62.5223L70.8537 62.89L3.04247 198.02Z" stroke="url(#paint0_linear_1_1385)" stroke-width="2.73838"/>
<defs>
<linearGradient id="paint0_linear_1_1385" x1="-3.10123" y1="207.21" x2="498.718" y2="154.466" gradientUnits="userSpaceOnUse">
<stop stop-color="#FF1CF7"/>
<stop offset="1" stop-color="#00F0FF"/>
</linearGradient>
</defs>
</svg>
