<svg width="310" height="328" viewBox="0 0 310 328" fill="none" xmlns="http://www.w3.org/2000/svg">
<path opacity="0.84058" d="M73.8879 10.7422C68.7141 11.1393 64.0792 14.0568 61.4795 18.523L61.2341 18.9596L3.26423 126.235C1.12003 130.203 0.782461 134.893 2.32211 139.118L2.47709 139.525L53.12 267.383C54.6628 271.277 57.6913 274.392 61.528 276.046L61.9017 276.202L183.225 324.863C187.982 326.771 193.371 326.244 197.669 323.453L296.564 259.23C300.728 256.526 303.366 252.023 303.701 247.087L303.726 246.608L308.62 115.981C308.776 111.795 307.259 107.724 304.413 104.665L304.134 104.372L207.929 6.10273C204.774 2.87986 200.394 1.16953 195.903 1.38951L195.468 1.41653L73.8879 10.7422Z" stroke="url(#paint0_linear_1_1406)" stroke-width="2.73838"/>
<defs>
<linearGradient id="paint0_linear_1_1406" x1="64.4702" y1="10.0909" x2="264.652" y2="318.344" gradientUnits="userSpaceOnUse">
<stop stop-color="#FF1CF7"/>
<stop offset="1" stop-color="#00F0FF"/>
</linearGradient>
</defs>
</svg>
