<svg width="422" height="342" viewBox="0 0 422 342" fill="none" xmlns="http://www.w3.org/2000/svg">
<path opacity="0.637681" d="M6.27687 103.061C2.11813 107.011 0.444488 112.896 1.87051 118.422L2.01801 118.955L42.1099 254.523C43.346 258.702 46.256 262.176 50.1382 264.13L50.5168 264.314L209.67 339.133C213.107 340.748 217.008 341.067 220.655 340.037L221.007 339.933L374.984 292.562C380.168 290.967 384.168 286.818 385.572 281.579L419.756 154.001C421.116 148.926 419.854 143.519 416.418 139.574L416.078 139.196L306.416 21.183C303.83 18.4007 300.33 16.6483 296.562 16.242L296.197 16.2069L120.957 1.4263C116.614 1.06003 112.32 2.50849 109.091 5.41611L108.781 5.7025L6.27687 103.061Z" stroke="url(#paint0_linear_1_1392)" stroke-width="2.73838"/>
<defs>
<linearGradient id="paint0_linear_1_1392" x1="-2.27001" y1="109.289" x2="441.179" y2="228.11" gradientUnits="userSpaceOnUse">
<stop stop-color="#FF1CF7"/>
<stop offset="1" stop-color="#00F0FF"/>
</linearGradient>
</defs>
</svg>
