<svg width="280" height="299" viewBox="0 0 280 299" fill="none" xmlns="http://www.w3.org/2000/svg">
<path opacity="0.942029" d="M109.399 1.89857C104.7 0.652588 99.697 1.64527 95.8355 4.57061L95.4652 4.86031L7.7665 75.4966C4.18449 78.3818 2.04672 82.6816 1.89763 87.2639L1.88917 87.7087L1.37139 206.084C1.35187 210.547 3.2237 214.803 6.51088 217.802L6.83351 218.087L94.4966 293.794C98.2301 297.018 103.257 298.31 108.082 297.284L216.812 274.173C221.487 273.18 225.45 270.122 227.602 265.873L227.805 265.458L277.095 160.642C278.995 156.603 279.091 151.955 277.375 147.849L277.203 147.454L228.582 39.5235C226.693 35.3299 223.071 32.177 218.675 30.8777L218.246 30.7578L109.399 1.89857Z" stroke="url(#paint0_linear_1_1413)" stroke-width="2.73838"/>
<defs>
<linearGradient id="paint0_linear_1_1413" x1="101.363" y1="-1.65075" x2="168.351" y2="313.502" gradientUnits="userSpaceOnUse">
<stop stop-color="#FF1CF7"/>
<stop offset="1" stop-color="#00F0FF"/>
</linearGradient>
</defs>
</svg>
