<svg width="481" height="406" viewBox="0 0 481 406" fill="none" xmlns="http://www.w3.org/2000/svg">
<path opacity="0.42029" d="M1.40542 316.112C0.992563 322.284 4.22914 328.106 9.64198 331.025L10.173 331.298L156.093 403.015C159.879 404.876 164.247 405.138 168.22 403.754L168.603 403.615L371.184 327.127C374.36 325.928 377.057 323.737 378.882 320.889L379.235 320.311L476.68 152.77C479.518 147.89 479.528 141.865 476.706 136.976L402.96 9.24412C400.225 4.50842 395.238 1.54135 389.797 1.37671L389.269 1.36949L195.452 1.98884C192.057 1.99969 188.764 3.10715 186.057 5.13572L185.523 5.55333L17.9925 142.749C14.7289 145.422 12.6776 149.288 12.2885 153.477L12.2568 153.883L1.40542 316.112Z" stroke="url(#paint0_linear_1_1377)" stroke-width="2.73838"/>
<defs>
<linearGradient id="paint0_linear_1_1377" x1="-0.727272" y1="327.467" x2="481.46" y2="49.0767" gradientUnits="userSpaceOnUse">
<stop stop-color="#FF1CF7"/>
<stop offset="1" stop-color="#00F0FF"/>
</linearGradient>
</defs>
</svg>
