<svg width="367" height="337" viewBox="0 0 367 337" fill="none" xmlns="http://www.w3.org/2000/svg">
<path opacity="0.724638" d="M16.2319 62.7446C11.297 65.2221 8.03013 70.0933 7.59045 75.5719L7.55645 76.1036L1.38774 209.021C1.18271 213.44 2.84339 217.735 5.95208 220.864L6.25727 221.162L121.745 331.274C124.603 333.999 128.376 335.549 132.316 335.626L132.697 335.629L280.83 334.936C286.142 334.911 291.085 332.212 293.978 327.757L362.627 222.047C365.43 217.731 365.944 212.329 364.03 207.574L363.837 207.116L304.22 71.5079C302.63 67.8924 299.744 65.0092 296.137 63.4223L295.786 63.2736L148.221 2.55696C144.131 0.873886 139.528 0.988993 135.534 2.8603L135.149 3.04665L16.2319 62.7446Z" stroke="url(#paint0_linear_1_1398)" stroke-width="2.73838"/>
<defs>
<linearGradient id="paint0_linear_1_1398" x1="6.65222" y1="66.02" x2="359.004" y2="294.84" gradientUnits="userSpaceOnUse">
<stop stop-color="#FF1CF7"/>
<stop offset="1" stop-color="#00F0FF"/>
</linearGradient>
</defs>
</svg>
