<svg width="296" height="313" viewBox="0 0 296 313" fill="none" xmlns="http://www.w3.org/2000/svg">
<path opacity="0.898551" d="M96.0421 1.47681C91.0655 0.89768 86.1199 2.71821 82.7085 6.36148L82.3831 6.72002L5.30511 94.2632C2.28975 97.688 0.911028 102.245 1.50832 106.754L1.57214 107.191L21.7025 232.24C22.3922 236.525 24.816 240.33 28.3927 242.766L28.7427 242.999L131.574 309.123C135.799 311.84 141.065 312.381 145.755 310.581L252.271 269.694C256.813 267.95 260.288 264.21 261.702 259.573L261.833 259.121L294.006 141.174C295.148 136.987 294.513 132.52 292.262 128.823L292.039 128.468L223.324 22.0682C220.849 18.235 216.839 15.668 212.337 15.0164L211.9 14.9588L96.0421 1.47681Z" stroke="url(#paint0_linear_1_1410)" stroke-width="2.73838"/>
<defs>
<linearGradient id="paint0_linear_1_1410" x1="87.285" y1="-0.922644" x2="209.777" y2="318.181" gradientUnits="userSpaceOnUse">
<stop stop-color="#FF1CF7"/>
<stop offset="1" stop-color="#00F0FF"/>
</linearGradient>
</defs>
</svg>
