<svg width="440" height="344" viewBox="0 0 440 344" fill="none" xmlns="http://www.w3.org/2000/svg">
<path opacity="0.594203" d="M4.70672 134.829C1.11711 139.424 0.369334 145.612 2.72457 150.913L2.9626 151.423L66.7287 282.188C68.6245 286.076 72.0331 289.007 76.1468 290.304L76.5476 290.424L253.338 341.044C256.923 342.071 260.752 341.791 264.144 340.261L264.471 340.11L415.567 267.786C420.501 265.424 423.856 260.669 424.428 255.229L438.545 120.92C439.099 115.649 436.963 110.465 432.888 107.113L432.488 106.795L299.73 4.63656C296.775 2.36248 293.112 1.21288 289.395 1.38608L289.036 1.4072L105.584 14.1646C101.269 14.4647 97.2735 16.5255 94.529 19.8528L94.267 20.1788L4.70672 134.829Z" stroke="url(#paint0_linear_1_1389)" stroke-width="2.73838"/>
<defs>
<linearGradient id="paint0_linear_1_1389" x1="-2.95514" y1="142.412" x2="472.745" y2="192.41" gradientUnits="userSpaceOnUse">
<stop stop-color="#FF1CF7"/>
<stop offset="1" stop-color="#00F0FF"/>
</linearGradient>
</defs>
</svg>
